<svg width="269" height="58" viewBox="0 0 269 58" fill="none" xmlns="http://www.w3.org/2000/svg">
<g clip-path="url(#clip0_1_17534)">
<path fill-rule="evenodd" clip-rule="evenodd" d="M35.3553 29.7326C35.3968 30.4182 35.6799 31.0112 36.2046 31.5116C36.7293 32.0119 37.3458 32.2616 38.0541 32.2616C38.5307 32.2616 38.9723 32.1569 39.3811 31.9454C39.7899 31.734 40.0795 31.5225 40.2501 31.311L40.5211 31.0014L41.2349 31.7133C41.1904 31.7715 41.1452 31.8293 41.0994 31.8866C40.979 32.0219 40.8494 32.1486 40.7113 32.2659C40.5124 32.4439 40.2964 32.602 40.0664 32.7379C39.7843 32.8965 39.4855 33.0237 39.1756 33.1173C38.813 33.2325 38.4346 33.291 38.0541 33.2906C37.0157 33.2906 36.1193 32.9058 35.3706 32.134C34.6207 31.3633 34.2447 30.4291 34.2447 29.3303C34.2447 28.2315 34.6164 27.2973 35.3596 26.5255C36.1007 25.7548 36.9741 25.37 37.9765 25.37C39.0171 25.37 39.885 25.7298 40.5834 26.4481C41.2819 27.1676 41.6306 28.0767 41.6306 29.1755L41.553 29.7478L35.3553 29.7326ZM36.2319 27.1098C35.7523 27.5472 35.442 28.1386 35.3553 28.7809H40.5211C40.4381 28.0942 40.1604 27.5273 39.6871 27.0793C39.4607 26.86 39.1929 26.6875 38.8993 26.5719C38.6057 26.4563 38.2921 26.3998 37.9765 26.4056C37.3097 26.4056 36.7282 26.6411 36.2319 27.1098ZM47.5857 36.4628H46.4762V25.5325H47.5857V26.7239C47.6064 26.6912 47.6436 26.6455 47.6983 26.58C47.7529 26.5146 47.8622 26.4056 48.0317 26.2519C48.2003 26.0969 48.3833 25.9582 48.5782 25.8377C48.7749 25.7167 49.0264 25.6088 49.3346 25.5129C49.6428 25.418 49.9598 25.37 50.2856 25.37C51.2573 25.37 52.1099 25.7592 52.8412 26.5364C53.5725 27.3169 53.9386 28.2479 53.9386 29.3347C53.9386 30.4204 53.5735 31.3513 52.8445 32.1253C52.1154 32.9025 51.2628 33.2917 50.2856 33.2917C49.9598 33.2917 49.645 33.2448 49.3423 33.1522C49.074 33.0743 48.8169 32.9626 48.5771 32.8197C48.3882 32.7025 48.2085 32.5713 48.0393 32.4273C47.9157 32.3247 47.8002 32.2129 47.6939 32.0926L47.5846 31.9454V36.4628H47.5857ZM48.4197 31.383C48.975 31.9694 49.5969 32.2627 50.2856 32.2627C50.9414 32.2627 51.5306 31.9771 52.0498 31.408C52.5701 30.8379 52.8292 30.1468 52.8292 29.3347C52.8292 28.5226 52.5701 27.8304 52.0498 27.2613C51.5306 26.6912 50.9414 26.4067 50.2856 26.4067C49.5969 26.4067 48.9739 26.6989 48.4197 27.2842C47.8622 27.8696 47.5857 28.5531 47.5857 29.3336C47.5857 30.1152 47.8633 30.7987 48.4197 31.383ZM63.9184 32.4403C63.4287 32.9047 62.7532 33.1369 61.8951 33.1369H58.7842V25.5325H59.8937V28.0691H61.8798C62.7379 28.0691 63.4156 28.3013 63.9118 28.7657C64.4081 29.23 64.6551 29.8427 64.6551 30.6025C64.6551 31.3633 64.4103 31.976 63.9195 32.4403H63.9184ZM61.8951 32.1079C62.3914 32.1079 62.7903 31.9662 63.0931 31.686C63.3959 31.4048 63.5468 31.0429 63.5468 30.5992C63.5468 30.1555 63.3959 29.7947 63.0931 29.5167C62.7903 29.2377 62.3859 29.0981 61.8798 29.0981H59.8937V32.1068H61.894L61.8951 32.1079ZM73.2904 31.1497C73.4588 31.916 73.6621 32.5668 73.9025 33.1031C74.143 33.6394 74.3857 34.1191 74.6283 34.542C74.8721 34.965 75.0787 35.2767 75.2492 35.4773L75.4973 35.7934L74.6283 36.2731C74.5268 36.1677 74.4308 36.0571 74.3409 35.9417C74.2228 35.7924 74.0129 35.4708 73.7134 34.9792C73.4121 34.4846 73.1476 33.9687 72.9221 33.4356C72.6947 32.8993 72.4848 32.2103 72.2935 31.3699C72.103 30.5348 72.0069 29.681 72.0071 28.8245C72.0071 27.9688 72.0946 27.1273 72.2739 26.2999C72.4531 25.4714 72.6696 24.7738 72.9253 24.2069C73.1822 23.6401 73.4391 23.1343 73.6981 22.6906C73.9561 22.247 74.1758 21.9145 74.3573 21.6932L74.6283 21.376L75.4973 21.8556C75.4077 21.9616 75.321 22.0699 75.2372 22.1805C75.1268 22.3244 74.9278 22.6318 74.6436 23.1005C74.3594 23.5692 74.1113 24.0576 73.8993 24.5612C73.6872 25.0681 73.4904 25.7091 73.309 26.4852C73.129 27.252 73.038 28.037 73.0379 28.8245C73.0379 29.6094 73.1221 30.3834 73.2893 31.1497H73.2904ZM81.0622 25.1815H87.5703V26.2105H84.8704V32.7859H83.7621V26.2105H81.0622V25.1815ZM96.9456 27.9514C96.9456 27.3889 96.7675 26.9332 96.41 26.5822C96.0537 26.2312 95.5957 26.0557 95.0371 26.0557C94.6338 26.0557 94.2556 26.1473 93.9014 26.3304C93.5473 26.5135 93.2893 26.701 93.1297 26.8918L92.8892 27.1622L92.1755 26.4503C92.2061 26.4089 92.2487 26.3566 92.3034 26.2923C92.4156 26.1719 92.5345 26.058 92.6597 25.9511C92.8433 25.7897 93.0357 25.6437 93.239 25.515C93.4868 25.365 93.7537 25.2492 94.0326 25.1706C94.3616 25.0703 94.6961 25.018 95.0382 25.018C95.9061 25.018 96.6265 25.3003 97.1981 25.8628C97.7687 26.4253 98.0551 27.1207 98.0551 27.9514V32.7859H96.9456V31.7569C96.9153 31.8009 96.8828 31.8435 96.8484 31.8844C96.8046 31.9389 96.7063 32.0348 96.5543 32.1711C96.4013 32.3074 96.2373 32.4294 96.0624 32.5352C95.8436 32.6583 95.61 32.7532 95.3672 32.8175C95.0782 32.8997 94.7791 32.9412 94.4786 32.9407C93.7189 32.9407 93.0794 32.7161 92.5591 32.2681C92.0388 31.819 91.7798 31.3067 91.7798 30.7289C91.7798 30.0945 91.9711 29.5821 92.3536 29.1919C92.7362 28.8038 93.2871 28.5487 94.0053 28.431L96.9456 27.9514ZM96.2515 31.2064C96.7139 30.7376 96.9456 30.1294 96.9456 29.3816V28.9019L94.3244 29.3816C93.3735 29.5614 92.8936 30.0105 92.8892 30.7278C92.8892 31.0679 93.0292 31.3492 93.3112 31.5748C93.5932 31.7983 93.9823 31.9106 94.4786 31.9106C95.1978 31.9106 95.7881 31.6762 96.2515 31.2064ZM104.561 32.7859H103.452V25.1815H104.561V29.2202L108.369 25.1815H109.727L106.787 28.2686L110.044 32.7859H108.773L106.073 29.0654L104.561 30.6504V32.7859ZM118.763 26.5005C118.595 25.7341 118.388 25.0834 118.143 24.547C117.92 24.0579 117.679 23.5779 117.418 23.1081C117.18 22.6852 116.975 22.3734 116.805 22.1728L116.556 21.8556L117.425 21.376C117.498 21.4479 117.593 21.5591 117.712 21.7085C117.831 21.8578 118.04 22.1783 118.34 22.671C118.641 23.1637 118.906 23.6782 119.135 24.2146C119.365 24.7509 119.574 25.4398 119.764 26.2803C119.953 27.1207 120.047 27.9688 120.047 28.8245C120.047 29.6813 119.958 30.5229 119.78 31.3503C119.601 32.1787 119.381 32.8764 119.12 33.4432C118.857 34.0101 118.602 34.5159 118.348 34.9595C118.157 35.3085 117.94 35.642 117.697 35.957L117.425 36.2742L116.556 35.7945C116.646 35.6886 116.733 35.5803 116.817 35.4697C116.926 35.3258 117.126 35.0184 117.413 34.5497C117.701 34.0798 117.949 33.5926 118.157 33.0879C118.368 32.5821 118.563 31.9411 118.744 31.1649C118.924 30.3978 119.015 29.6125 119.015 28.8245C119.015 28.0408 118.932 27.2668 118.763 26.5005Z" fill="white"/>
<path fill-rule="evenodd" clip-rule="evenodd" d="M75.4787 25.0544L74.7867 21.8256L71.5808 22.653L71.3654 21.8223L75.4393 20.7715L76.3192 24.8757L75.4787 25.0544ZM116.285 37.0792L115.531 32.951L116.377 32.7973L116.971 36.0458L120.2 35.3154L120.39 36.1526L116.285 37.0792ZM0.184418 25.5319H6.69258V26.562H3.99269V33.1374H2.88431V26.562H0.184418V25.5319ZM11.6934 29.7331C11.7349 30.4187 12.018 31.0117 12.5427 31.5121C13.0674 32.0124 13.6839 32.2621 14.3922 32.2621C14.8688 32.2621 15.3104 32.1574 15.7192 31.946C16.128 31.7345 16.4177 31.523 16.5882 31.3115L16.8593 31.0019L17.573 31.7138C17.5285 31.772 17.4833 31.8298 17.4375 31.8871C17.3171 32.0224 17.1875 32.1491 17.0495 32.2664C16.8505 32.4444 16.6345 32.6025 16.4045 32.7384C16.1224 32.897 15.8237 33.0242 15.5137 33.1178C15.1511 33.233 14.7728 33.2915 14.3922 33.2911C13.3538 33.2911 12.4575 32.9063 11.7087 32.1345C10.9589 31.3638 10.5828 30.4296 10.5828 29.3308C10.5828 28.232 10.9545 27.2978 11.6978 26.526C12.4389 25.7554 13.3122 25.3706 14.3146 25.3706C15.3552 25.3706 16.2231 25.7303 16.9216 26.4486C17.62 27.1681 17.9687 28.0772 17.9687 29.176L17.8911 29.7483L11.6934 29.7331ZM12.57 27.1103C12.0904 27.5477 11.7802 28.1391 11.6934 28.7814H16.8593C16.7762 28.0947 16.4986 27.5278 16.0253 27.0798C15.7988 26.8605 15.5311 26.688 15.2375 26.5724C14.9438 26.4568 14.6302 26.4003 14.3146 26.4061C13.6478 26.4061 13.0663 26.6416 12.57 27.1103ZM28.2906 26.5773H23.9238V33.1374H22.8143V25.533H29.4078V33.1374H28.2906V26.5773Z" fill="white"/>
</g>
<path d="M144.357 23.6289L154.948 34.2208" stroke="white" stroke-width="0.748958"/>
<path d="M144.357 34.2208L154.948 23.6289" stroke="white" stroke-width="0.748958"/>
<path fill-rule="evenodd" clip-rule="evenodd" d="M256.568 21.2345L252.467 14.0028C252.055 13.3193 252.404 12.0497 253.41 12.0497L261.946 12.0469C262.6 12.0469 263.512 12.8459 262.846 14.0831L258.857 21.2528C258.337 22.2209 257.128 22.1744 256.567 21.2345M260.86 14.1521L257.929 19.4082C257.697 19.8253 257.703 19.7859 257.436 19.3152L254.744 14.5946C254.339 13.8914 254.259 13.7463 254.587 13.7449H260.721C261.134 13.7435 261.041 13.8266 260.861 14.1507L260.86 14.1521Z" fill="white"/>
<path fill-rule="evenodd" clip-rule="evenodd" d="M202.29 33.8054L199.095 28.1702C198.775 27.6375 199.046 26.6483 199.83 26.6483L206.481 26.6455C206.99 26.6455 207.702 27.2683 207.183 28.2322L204.075 33.818C203.67 34.5719 202.729 34.5367 202.291 33.8039M205.637 28.2857L203.353 32.3807C203.171 32.7062 203.176 32.6752 202.969 32.3088L200.872 28.631C200.557 28.0828 200.494 27.9701 200.749 27.9701H205.528C205.85 27.9687 205.777 28.0335 205.638 28.2857H205.637Z" fill="white"/>
<path d="M212.809 12.8075C212.687 12.8075 212.568 12.7793 212.45 12.7215L212.534 12.5214C212.614 12.5623 212.703 12.5834 212.798 12.5834C212.874 12.5834 212.939 12.5595 212.991 12.513C213.043 12.4665 213.095 12.3833 213.144 12.265L212.375 10.5768H212.653L213.268 11.9902L213.81 10.5768H214.079L213.369 12.327C213.297 12.5003 213.217 12.6229 213.13 12.6962C213.043 12.7694 212.934 12.8061 212.807 12.8061M211.27 12.1043C211.428 12.1043 211.56 12.0621 211.669 11.9761C211.778 11.8901 211.832 11.7816 211.832 11.6478V11.4899C211.667 11.442 211.502 11.4181 211.339 11.4181C211.185 11.4181 211.064 11.4491 210.976 11.5111C210.889 11.5731 210.846 11.6576 210.846 11.7647C210.846 11.8718 210.887 11.9493 210.968 12.0099C211.05 12.0705 211.151 12.1015 211.27 12.1015V12.1043ZM211.221 12.3072C211.048 12.3072 210.901 12.2607 210.777 12.1663C210.653 12.0719 210.59 11.9409 210.59 11.7732C210.59 11.5956 210.656 11.4589 210.787 11.3631C210.917 11.2673 211.093 11.2194 211.314 11.2194C211.488 11.2194 211.661 11.2433 211.831 11.2913V11.2391C211.831 11.0912 211.788 10.977 211.7 10.8981C211.613 10.8192 211.49 10.7797 211.331 10.7797C211.172 10.7797 210.993 10.8206 210.818 10.9009L210.742 10.6938C210.951 10.598 211.156 10.55 211.356 10.55C211.596 10.55 211.778 10.612 211.903 10.7375C212.021 10.8558 212.08 11.0221 212.08 11.2363V12.272H211.831V12.0198C211.681 12.2114 211.478 12.3087 211.222 12.3087L211.221 12.3072ZM208.415 12.2847L207.824 10.5768H208.092L208.536 11.9366L208.99 10.5698H209.2L209.658 11.9366L210.102 10.5768H210.364L209.769 12.2847H209.55L209.096 10.9474L208.638 12.2847H208.415ZM206.002 12.272V10.5768H206.254V10.8713C206.387 10.6501 206.58 10.5402 206.833 10.5402C207.034 10.5402 207.191 10.6022 207.306 10.7248C207.422 10.8488 207.479 11.0122 207.479 11.218V12.2706H207.228V11.28C207.228 11.1207 207.187 10.9953 207.105 10.9051C207.024 10.815 206.909 10.7685 206.761 10.7685C206.614 10.7685 206.494 10.8178 206.398 10.9164C206.303 11.0151 206.255 11.1419 206.255 11.2997V12.2706H206.003L206.002 12.272ZM204.217 11.3251H205.306C205.291 11.1616 205.237 11.0249 205.145 10.9164C205.052 10.8079 204.927 10.7544 204.767 10.7544C204.623 10.7544 204.5 10.8079 204.397 10.915C204.294 11.0221 204.234 11.1588 204.217 11.3251ZM204.217 11.528C204.234 11.7013 204.3 11.838 204.411 11.9395C204.523 12.0409 204.657 12.0916 204.812 12.0916C205.014 12.0916 205.192 12.0113 205.344 11.8521L205.502 11.993C205.312 12.2044 205.08 12.3115 204.806 12.3115C204.568 12.3115 204.369 12.2283 204.206 12.0635C204.043 11.8986 203.963 11.6858 203.963 11.4265C203.963 11.1672 204.04 10.97 204.194 10.7995C204.349 10.6275 204.542 10.5416 204.774 10.5416C205.006 10.5416 205.208 10.6261 205.348 10.7966C205.49 10.9672 205.561 11.1813 205.561 11.4392C205.561 11.4716 205.561 11.5012 205.558 11.528H204.217ZM202.281 11.3251H203.371C203.355 11.1616 203.302 11.0249 203.209 10.9164C203.116 10.8079 202.991 10.7544 202.831 10.7544C202.688 10.7544 202.564 10.8079 202.461 10.915C202.359 11.0221 202.298 11.1588 202.281 11.3251ZM202.281 11.528C202.298 11.7013 202.364 11.838 202.475 11.9395C202.588 12.0409 202.721 12.0916 202.876 12.0916C203.078 12.0916 203.257 12.0113 203.409 11.8521L203.566 11.993C203.376 12.2044 203.145 12.3115 202.87 12.3115C202.633 12.3115 202.433 12.2283 202.27 12.0635C202.107 11.8986 202.027 11.6858 202.027 11.4265C202.027 11.1672 202.104 10.97 202.259 10.7995C202.414 10.6275 202.606 10.5416 202.838 10.5416C203.07 10.5416 203.272 10.6261 203.413 10.7966C203.555 10.9672 203.625 11.1813 203.625 11.4392C203.625 11.4716 203.625 11.5012 203.622 11.528H202.281ZM200.879 12.272V10.5768H201.13V11.0193C201.195 10.8727 201.288 10.7558 201.409 10.6684C201.528 10.581 201.666 10.5402 201.82 10.5472V10.8192H201.801C201.607 10.8192 201.447 10.8868 201.32 11.0221C201.194 11.1574 201.13 11.349 201.13 11.5956V12.2706H200.879V12.272ZM200.339 11.9606C200.078 12.1945 199.771 12.3115 199.42 12.3115C199.068 12.3115 198.787 12.1987 198.575 11.9719C198.363 11.7464 198.256 11.4632 198.256 11.125C198.256 10.7868 198.364 10.5233 198.579 10.2894C198.796 10.0554 199.07 9.93848 199.403 9.93848C199.586 9.93848 199.743 9.96384 199.875 10.0132C200.007 10.0639 200.134 10.14 200.256 10.2429L200.089 10.4401C199.888 10.2654 199.656 10.178 199.393 10.178C199.13 10.178 198.935 10.271 198.77 10.4556C198.606 10.6402 198.523 10.8643 198.523 11.1264C198.523 11.404 198.606 11.6323 198.77 11.8112C198.935 11.9902 199.154 12.0804 199.43 12.0804C199.683 12.0804 199.903 12.0043 200.09 11.8507V11.28H199.394V11.0475H200.339V11.962V11.9606Z" fill="white"/>
<path d="M196.86 17.9729C196.86 21.6043 194.338 23.8096 191.021 23.8096C187.298 23.8096 184.623 21.0603 184.623 17.6502C184.623 14.2401 187.348 11.457 190.834 11.457C193.103 11.457 195.015 12.5773 196.014 14.1724L193.712 15.4956C193.221 14.715 192.154 14.1048 190.817 14.1048C188.82 14.1048 187.33 15.5816 187.33 17.6685C187.33 19.7555 188.753 21.1646 191.054 21.1646C192.628 21.1646 193.66 20.4685 194.084 19.3313H190.919V16.9555H196.86V17.9743V17.9729Z" fill="white"/>
<path d="M203.377 14.9189V17.8035C202.327 17.6344 200.838 18.0585 200.838 19.7382V23.5739H198.3V15.0895H200.838V16.6C201.177 15.4629 202.311 14.9204 203.377 14.9204V14.9189Z" fill="white"/>
<path d="M208.607 21.537C209.301 21.537 209.893 21.265 210.232 20.8916L212.263 22.0626C211.433 23.2167 210.181 23.8099 208.573 23.8099C205.679 23.8099 203.884 21.8582 203.884 19.3302C203.884 16.8022 205.711 14.8506 208.386 14.8506C210.857 14.8506 212.686 16.7684 212.686 19.3302C212.686 19.6868 212.652 20.0264 212.585 20.3491H206.576C206.898 21.2312 207.676 21.537 208.607 21.537ZM210.164 18.4481C209.893 17.4631 209.131 17.108 208.369 17.108C207.405 17.108 206.761 17.5829 206.524 18.4481H210.163H210.164Z" fill="white"/>
<path d="M218.339 21.537C219.033 21.537 219.625 21.265 219.964 20.8916L221.995 22.0626C221.166 23.2167 219.913 23.8099 218.305 23.8099C215.411 23.8099 213.616 21.8582 213.616 19.3302C213.616 16.8022 215.445 14.8506 218.118 14.8506C220.589 14.8506 222.418 16.7684 222.418 19.3302C222.418 19.6868 222.384 20.0264 222.317 20.3491H216.308C216.63 21.2312 217.409 21.537 218.339 21.537ZM219.896 18.4481C219.625 17.4631 218.863 17.108 218.103 17.108C217.139 17.108 216.495 17.5829 216.257 18.4481H219.896Z" fill="white"/>
<path d="M231.983 18.3636V23.5732H229.445V18.737C229.445 17.6844 228.784 17.1926 227.972 17.1926C227.041 17.1926 226.397 17.7351 226.397 18.9399V23.5732H223.859V15.0887H226.397V15.8863C226.854 15.2578 227.7 14.8506 228.818 14.8506C230.527 14.8506 231.983 16.0723 231.983 18.3636Z" fill="white"/>
<path d="M221.708 32.6173C221.708 35.9767 219.22 38.5568 215.954 38.5568H211.214V26.6777H215.954C219.22 26.6777 221.708 29.2565 221.708 32.6173ZM219.102 32.6173C219.102 30.5811 217.816 29.2917 215.954 29.2917H213.922V35.9442H215.954C217.816 35.9442 219.102 34.6549 219.102 32.6187V32.6173Z" fill="white"/>
<path d="M228.224 29.9033V32.7878C227.174 32.6187 225.686 33.0429 225.686 34.7226V38.5583H223.147V30.0738H225.686V31.5844C226.025 30.4473 227.159 29.9047 228.224 29.9047V29.9033Z" fill="white"/>
<path d="M229.155 27.798C229.155 26.9666 229.849 26.2705 230.679 26.2705C231.508 26.2705 232.202 26.9666 232.202 27.798C232.202 28.6294 231.508 29.3255 230.679 29.3255C229.849 29.3255 229.155 28.6294 229.155 27.798ZM229.409 30.0724H231.948V38.5568H229.409V30.0724Z" fill="white"/>
<path d="M242.019 30.0723L238.887 38.5567H236.01L232.878 30.0723H235.688L237.448 35.451L239.208 30.0723H242.017H242.019Z" fill="white"/>
<path d="M246.912 36.5204C247.606 36.5204 248.198 36.2484 248.537 35.875L250.568 37.046C249.739 38.2001 248.486 38.7933 246.878 38.7933C243.984 38.7933 242.189 36.8416 242.189 34.3136C242.189 31.7856 244.018 29.834 246.691 29.834C249.162 29.834 250.991 31.7518 250.991 34.3136C250.991 34.6702 250.957 35.0098 250.89 35.3324H244.881C245.203 36.2146 245.981 36.5204 246.912 36.5204ZM248.469 33.4315C248.198 32.4465 247.436 32.0914 246.676 32.0914C245.712 32.0914 245.068 32.5663 244.83 33.4315H248.469Z" fill="white"/>
<path d="M227.027 49.0944C226.958 49.0944 226.888 49.0944 226.819 49.0944C226.632 49.0944 226.483 48.9408 226.484 48.7534C226.484 48.5674 226.636 48.418 226.822 48.418H226.825C226.907 48.418 226.989 48.418 227.072 48.418C228.087 48.418 229.128 48.3814 230.171 48.3067C230.354 48.2926 230.518 48.4335 230.531 48.6195C230.544 48.8055 230.405 48.9676 230.219 48.9803C229.161 49.055 228.102 49.093 227.073 49.093H227.03L227.027 49.0944ZM223.453 48.9324C223.443 48.9324 223.431 48.9324 223.422 48.931C222.27 48.8253 221.136 48.6675 220.05 48.4603C219.867 48.4251 219.746 48.2489 219.781 48.0658C219.816 47.8826 219.993 47.7614 220.175 47.7966C221.24 47.9995 222.353 48.1545 223.483 48.2574C223.669 48.2743 223.805 48.4392 223.788 48.6252C223.773 48.8013 223.625 48.9324 223.453 48.9324ZM233.548 48.6238C233.382 48.6238 233.238 48.5012 233.214 48.3335C233.188 48.1489 233.317 47.977 233.501 47.9516C234.602 47.7952 235.711 47.5979 236.8 47.3654C236.981 47.3274 237.161 47.4429 237.201 47.6261C237.24 47.8093 237.123 47.9883 236.941 48.0277C235.836 48.263 234.711 48.4631 233.595 48.621C233.58 48.6238 233.563 48.6238 233.548 48.6238ZM216.838 47.6571C216.806 47.6571 216.772 47.6529 216.738 47.6416C215.63 47.2992 214.555 46.8919 213.545 46.4326C213.374 46.3551 213.3 46.155 213.377 45.9845C213.455 45.8139 213.654 45.7393 213.824 45.8168C214.808 46.2649 215.857 46.6622 216.938 46.9962C217.116 47.0512 217.216 47.24 217.161 47.419C217.116 47.5641 216.983 47.6571 216.839 47.6571H216.838ZM248.204 47.488C247.211 47.488 246.184 47.3992 245.146 47.2245C244.962 47.1935 244.839 47.0188 244.87 46.8356C244.9 46.651 245.075 46.527 245.257 46.558C246.379 46.7468 247.491 46.8313 248.552 46.8088H248.559C248.742 46.8088 248.892 46.9553 248.897 47.1399C248.901 47.3274 248.753 47.481 248.566 47.4852C248.445 47.488 248.323 47.4894 248.201 47.4894L248.204 47.488ZM240.144 47.2175C239.998 47.2175 239.863 47.1202 239.819 46.9723C239.767 46.7933 239.871 46.6059 240.051 46.5537C240.457 46.4368 240.859 46.3156 241.256 46.1902C240.658 45.976 240.054 45.7336 239.451 45.4673C239.181 45.3489 238.915 45.2207 238.661 45.0896C238.495 45.0037 238.431 44.8008 238.515 44.6345C238.601 44.4682 238.803 44.4034 238.969 44.4879C239.212 44.6134 239.465 44.7345 239.722 44.8473C240.5 45.1897 241.278 45.4927 242.04 45.7449C242.112 45.7689 242.171 45.8154 242.21 45.8731C242.556 45.7548 242.896 45.6322 243.231 45.5082C243.405 45.4433 243.599 45.5321 243.665 45.7069C243.73 45.8816 243.641 46.076 243.467 46.1423C242.436 46.527 241.35 46.8849 240.237 47.2048C240.206 47.2132 240.175 47.2175 240.144 47.2175ZM251.898 47.0455C251.746 47.0455 251.609 46.9427 251.57 46.7891C251.525 46.6073 251.635 46.4241 251.816 46.379C252.891 46.1099 253.922 45.7125 254.877 45.1996C255.042 45.1122 255.246 45.1742 255.334 45.3377C255.421 45.5025 255.359 45.7068 255.196 45.7956C254.191 46.3353 253.109 46.7524 251.979 47.0343C251.952 47.0413 251.924 47.0441 251.898 47.0441V47.0455ZM210.724 44.8529C210.662 44.8529 210.598 44.836 210.542 44.7994C209.575 44.1779 208.657 43.4818 207.814 42.7293C207.675 42.6053 207.662 42.3911 207.786 42.2516C207.91 42.1121 208.123 42.0995 208.262 42.2235C209.08 42.952 209.97 43.627 210.908 44.2287C211.065 44.3301 211.11 44.5387 211.009 44.6965C210.944 44.7965 210.836 44.8515 210.725 44.8515L210.724 44.8529ZM246.454 44.8374C246.329 44.8374 246.209 44.7684 246.15 44.6486C246.069 44.4809 246.137 44.278 246.305 44.1963C247.412 43.6523 248.375 43.0901 249.171 42.5236C249.322 42.4151 249.533 42.4503 249.642 42.6025C249.75 42.7547 249.715 42.9661 249.563 43.0746C248.739 43.6622 247.743 44.2442 246.603 44.8036C246.555 44.8275 246.504 44.8388 246.455 44.8388L246.454 44.8374ZM257.779 43.8806C257.687 43.8806 257.597 43.844 257.531 43.7721C257.405 43.6354 257.413 43.4212 257.551 43.2944C258.352 42.5532 259.065 41.7077 259.669 40.7819C259.772 40.6255 259.98 40.5818 260.136 40.6833C260.292 40.7861 260.335 40.9947 260.234 41.1511C259.599 42.1248 258.85 43.0126 258.009 43.7904C257.944 43.851 257.863 43.8806 257.78 43.8806H257.779ZM236.068 43.1887C235.983 43.1887 235.899 43.1577 235.834 43.0943C234.974 42.2657 234.284 41.3188 233.785 40.2817C233.704 40.114 233.775 39.9111 233.942 39.8307C234.111 39.749 234.312 39.8209 234.392 39.9886C234.856 40.9524 235.498 41.8331 236.301 42.6067C236.436 42.7364 236.44 42.9506 236.311 43.0844C236.245 43.1535 236.156 43.1887 236.068 43.1887ZM251.861 40.8735C251.782 40.8735 251.704 40.8453 251.639 40.7904C251.498 40.6678 251.484 40.4536 251.607 40.3127C252.337 39.4728 252.952 38.5555 253.434 37.5846C253.517 37.4169 253.719 37.3492 253.886 37.4324C254.054 37.5155 254.121 37.7184 254.038 37.8861C253.531 38.9077 252.884 39.8744 252.115 40.7579C252.049 40.834 251.955 40.8735 251.861 40.8735ZM205.706 40.3789C205.607 40.3789 205.51 40.3366 205.444 40.2549C204.733 39.3812 204.076 38.4343 203.493 37.4394C203.399 37.2788 203.452 37.0716 203.613 36.9758C203.773 36.88 203.979 36.935 204.075 37.0956C204.642 38.0609 205.277 38.9796 205.967 39.8265C206.085 39.9716 206.064 40.1844 205.919 40.3028C205.856 40.3535 205.781 40.3789 205.706 40.3789ZM261.443 38.2821C261.405 38.2821 261.367 38.2765 261.329 38.2624C261.153 38.1989 261.062 38.0059 261.124 37.8298C261.492 36.7926 261.741 35.7118 261.86 34.6183C261.88 34.4323 262.049 34.2999 262.233 34.3196C262.418 34.3393 262.552 34.507 262.531 34.693C262.406 35.8386 262.146 36.9716 261.759 38.058C261.71 38.1961 261.581 38.2821 261.441 38.2821H261.443ZM233.207 37.2295C233.034 37.2295 232.887 37.097 232.871 36.9209C232.846 36.6249 232.833 36.3248 232.833 36.0261C232.833 35.1778 232.936 34.3139 233.14 33.4572C233.183 33.2754 233.365 33.1641 233.546 33.2064C233.727 33.25 233.84 33.4318 233.796 33.6136C233.605 34.4182 233.508 35.2299 233.508 36.0261C233.508 36.3051 233.521 36.5869 233.543 36.8631C233.56 37.0491 233.422 37.2126 233.237 37.2295C233.227 37.2295 233.217 37.2295 233.207 37.2295ZM254.813 34.8804C254.792 34.8804 254.771 34.879 254.749 34.8748C254.567 34.8396 254.446 34.6634 254.481 34.4788C254.616 33.7714 254.683 33.0528 254.683 32.3454C254.683 31.9649 254.664 31.583 254.624 31.211C254.605 31.025 254.74 30.8587 254.925 30.839C255.108 30.8193 255.277 30.9546 255.296 31.1406C255.337 31.5365 255.359 31.9424 255.359 32.3454C255.359 33.095 255.288 33.856 255.146 34.6056C255.115 34.7677 254.973 34.8804 254.816 34.8804H254.813ZM262.17 31.6211C262.002 31.6211 261.858 31.4971 261.835 31.3252C261.694 30.2289 261.423 29.1565 261.027 28.1363C260.959 27.963 261.045 27.7657 261.219 27.698C261.394 27.6304 261.589 27.7164 261.657 27.8911C262.073 28.962 262.359 30.0893 262.506 31.2406C262.529 31.4252 262.399 31.5957 262.213 31.6197C262.199 31.6211 262.184 31.6225 262.17 31.6225V31.6211ZM234.702 30.7361C234.645 30.7361 234.589 30.722 234.537 30.6925C234.374 30.6009 234.318 30.3951 234.408 30.2317C234.97 29.2312 235.664 28.2983 236.474 27.4613C236.603 27.3274 236.817 27.3246 236.95 27.4543C237.084 27.5839 237.087 27.7981 236.957 27.932C236.189 28.7267 235.528 29.6131 234.994 30.5628C234.932 30.6727 234.818 30.7347 234.7 30.7347L234.702 30.7361ZM254.075 28.2659C253.948 28.2659 253.827 28.1941 253.77 28.0715C253.286 27.0428 252.64 26.1762 251.848 25.4984C251.706 25.3772 251.689 25.163 251.81 25.0221C251.931 24.8812 252.145 24.8628 252.285 24.984C253.15 25.7238 253.854 26.6665 254.38 27.7826C254.46 27.9517 254.387 28.1532 254.218 28.2321C254.172 28.2546 254.123 28.2645 254.075 28.2645V28.2659ZM239.343 25.9282C239.229 25.9282 239.118 25.8704 239.055 25.7661C238.958 25.6069 239.007 25.3983 239.166 25.3011C240.145 24.7008 241.201 24.2203 242.307 23.8764C242.486 23.8215 242.674 23.9201 242.729 24.0991C242.784 24.2781 242.685 24.4669 242.507 24.5218C241.455 24.8488 240.449 25.3053 239.518 25.8774C239.464 25.9112 239.403 25.9267 239.343 25.9267V25.9282ZM259.744 25.3828C259.638 25.3828 259.534 25.3335 259.468 25.2405C259.027 24.6177 258.525 24.023 257.978 23.472C257.846 23.3396 257.847 23.1254 257.978 22.9943C258.11 22.8619 258.324 22.8633 258.455 22.9943C259.028 23.5721 259.554 24.1963 260.018 24.8488C260.126 25.0009 260.089 25.2123 259.938 25.3208C259.878 25.3631 259.81 25.3828 259.742 25.3828H259.744ZM249.077 24.0991C249.053 24.0991 249.03 24.0963 249.006 24.092C248.783 24.0441 248.552 24.0089 248.32 23.9849C247.452 23.8948 246.58 23.8764 245.737 23.93C245.548 23.9427 245.391 23.8004 245.378 23.6143C245.366 23.4283 245.508 23.2677 245.693 23.255C246.573 23.1972 247.483 23.217 248.389 23.3114C248.644 23.3382 248.898 23.3776 249.144 23.4298C249.327 23.4678 249.443 23.6482 249.404 23.8299C249.37 23.9892 249.23 24.0991 249.074 24.0991H249.077Z" fill="white"/>
<defs>
<clipPath id="clip0_1_17534">
<rect width="120.205" height="16.3077" fill="white" transform="translate(0.184418 20.7715)"/>
</clipPath>
</defs>
</svg>
