<svg width="175" height="205" viewBox="0 0 175 205" fill="none" xmlns="http://www.w3.org/2000/svg">
<path d="M49.5861 52.8857C54.6284 45.9672 63.5523 43.0822 71.6904 45.7398L112.561 59.0867C120.7 61.7443 126.201 69.3399 126.188 77.901L126.124 120.896C126.112 129.457 120.588 137.036 112.442 139.67L71.5315 152.895C63.3855 155.529 54.4702 152.617 49.4484 145.684L24.2282 110.863C19.2064 103.929 19.2203 94.5505 24.2626 87.632L49.5861 52.8857Z" fill="#BCCF00"/>
<path d="M66 100.382C72.905 102.47 84.6369 104.659 91 93.0469" stroke="#595959" stroke-width="2.19569" stroke-linecap="round"/>
<path d="M82 89.0469C82.4354 90.6979 82.7499 92.0588 83 93.0469" stroke="#595959" stroke-width="2.19569" stroke-linecap="round"/>
<path d="M78 90.0469C78.4354 91.6979 78.7499 93.0588 79 94.0469" stroke="#595959" stroke-width="2.19569" stroke-linecap="round"/>
<path d="M48 139.047C48 148.705 51 178.531 51 180.047" stroke="#595959" stroke-width="2.19569" stroke-linecap="round"/>
<path d="M114 140.047C112.237 152.629 109.805 168.708 109 175.047" stroke="#595959" stroke-width="2.19569" stroke-linecap="round"/>
<path d="M83 138.047C81.7214 153.775 81.2497 168.86 81 179.047" stroke="#595959" stroke-width="2.19569" stroke-linecap="round"/>
<path d="M51 182.778C56.024 186.484 61.8319 187.566 68.1946 187.925C71.3753 188.104 86.0588 188.829 89 182.778C88.1403 179.584 85.031 177.813 81.8648 177.047" stroke="#595959" stroke-width="2.19569" stroke-linecap="round" stroke-linejoin="round"/>
<path d="M109.938 174.047C113.072 174.813 116.149 176.584 117 179.778C114.089 185.829 99.5555 185.104 96.4072 184.925C93.4335 184.755 92.2275 184.747 89 183.836" stroke="#595959" stroke-width="2.19569" stroke-linecap="round" stroke-linejoin="round"/>
<path d="M144.85 150.672C148.023 151.424 151.139 153.16 152 156.294C149.053 162.23 141.304 162.046 137.695 162.046C134.171 161.852 121.979 160.635 120 157.105C121.397 153.694 122.561 151.694 127.451 150.047" stroke="#595959" stroke-width="2.19569" stroke-linecap="round" stroke-linejoin="round"/>
<path d="M35.9592 122.047C36.4671 130.59 32.1413 142.123 28 147.047" stroke="#595959" stroke-width="2.19569" stroke-linecap="round"/>
<path d="M127.925 63.7722C131.128 63.9512 167.678 64.0469 170.131 64.0469C173.081 63.7965 173.756 60.9353 172.157 58.2529C167.649 50.6927 151.236 24.2319 141.223 7.76486C138.949 4.0237 137.563 2.04697 135.2 2.04697C134.965 2.03827 133.948 2.63974 131.761 5.11522L105 53.3257" stroke="#595959" stroke-width="2.19569" stroke-linecap="round"/>
<path d="M139 64.0469C139 92.9545 138 125.607 138 154.047" stroke="#595959" stroke-width="2.19569" stroke-linecap="round"/>
<path d="M135 64.0469C135 92.9545 134 125.607 134 154.047" stroke="#595959" stroke-width="2.19569" stroke-linecap="round"/>
<path d="M24 149.047C22.0575 149.885 19.8403 150.203 18 151.047" stroke="#595959" stroke-width="2.19569" stroke-linecap="round"/>
<path d="M25 153.047C23.6369 154.786 22.6202 156.602 22 158.047" stroke="#595959" stroke-width="2.19569" stroke-linecap="round"/>
<path d="M31 151.047C31 151.898 30 154.57 30 156.047" stroke="#595959" stroke-width="2.19569" stroke-linecap="round"/>
<path d="M135.894 27.0468C135.894 27.4273 137.825 36.1479 138 38.325C135.961 41.5593 131.485 47.4846 131 48.0469" stroke="#595959" stroke-width="2.19569" stroke-linecap="round"/>
<path d="M138 39.0469C139.65 40.7564 143.72 45.6213 146 48.0469" stroke="#595959" stroke-width="2.19569" stroke-linecap="round"/>
<path d="M135 31.0469C133.634 32.9491 131.492 36.104 130 38.0469" stroke="#595959" stroke-width="2.19569" stroke-linecap="round"/>
<path d="M136 30.0469C137.737 31.1983 141.048 33.4682 143 35.0469" stroke="#595959" stroke-width="2.19569" stroke-linecap="round"/>
<path d="M118 55.0469C119.762 52.85 123.591 47.1908 125 45.047" stroke="#595959" stroke-width="2.19569" stroke-linecap="round"/>
<path d="M151 55.0469C152.762 52.85 156.591 47.1908 158 45.047" stroke="#595959" stroke-width="2.19569" stroke-linecap="round"/>
<path d="M130 55.0469L134 50.0469" stroke="#595959" stroke-width="2.19569" stroke-linecap="round"/>
<path d="M140 54.0469L143 50.0469" stroke="#595959" stroke-width="2.19569" stroke-linecap="round"/>
<circle cx="135" cy="24.0469" r="2.2681" stroke="#595959" stroke-width="1.46379"/>
</svg>
