<svg width="173" height="203" viewBox="0 0 173 203" fill="none" xmlns="http://www.w3.org/2000/svg">
<path d="M95.5491 48.5162C103.669 45.804 112.612 48.6289 117.701 55.5135L143.257 90.089C148.346 96.9736 148.423 106.352 143.447 113.319L118.461 148.309C113.486 155.276 104.591 158.247 96.4273 155.668L55.429 142.717C47.2655 140.139 41.6909 132.597 41.6208 124.036L41.2684 81.0423C41.1983 72.4815 46.6485 64.8492 54.7686 62.137L95.5491 48.5162Z" fill="#BCCF00"/>
<path d="M94.0488 110.774C98.7419 116.252 107.447 124.416 119.063 118.06" stroke="#595959" stroke-width="2.19569" stroke-linecap="round"/>
<path d="M113 109.594C112.478 111.219 112.009 112.535 111.688 113.503" stroke="#595959" stroke-width="2.19569" stroke-linecap="round"/>
<path d="M109 108.594C108.478 110.219 108.009 111.535 107.688 112.503" stroke="#595959" stroke-width="2.19569" stroke-linecap="round"/>
<path d="M56 137.594C56 147.252 59 177.077 59 178.594" stroke="#595959" stroke-width="2.19569" stroke-linecap="round"/>
<path d="M102 143.594C100.291 155.894 98.7802 167.397 98 173.594" stroke="#595959" stroke-width="2.19569" stroke-linecap="round"/>
<path d="M92 136.594C90.7214 152.322 90.2497 167.407 90 177.594" stroke="#595959" stroke-width="2.19569" stroke-linecap="round"/>
<path d="M60 181.325C65.024 185.031 70.8319 186.113 77.1946 186.471C80.3753 186.651 95.0588 187.376 98 181.325C97.1403 178.13 94.031 176.36 90.8648 175.594" stroke="#595959" stroke-width="2.19569" stroke-linecap="round" stroke-linejoin="round"/>
<path d="M99.5252 172.594C102.842 173.354 106.099 175.109 107 178.277C105.746 180.72 101.821 182.22 98 182.594" stroke="#595959" stroke-width="2.19569" stroke-linecap="round" stroke-linejoin="round"/>
<path d="M133.415 132.235C137.066 135.189 138.916 137.933 140.193 140.916" stroke="#595959" stroke-width="2.19569" stroke-linecap="round"/>
<path d="M35 180.752C35.6051 176.699 37.469 168.594 40.0832 168.594C40.0832 173.383 38.2678 177.804 40.0832 179.646C42.407 173.162 44.9244 171.541 45.8926 171.541C44.9244 173.26 43.2784 177.288 44.4403 179.646C46.9819 175.962 49.1604 175.225 49.8866 175.962C50.4675 176.552 48.6763 180.629 47.708 182.594" stroke="#595959" stroke-width="2.19569" stroke-linejoin="round"/>
<path d="M128 188.752C127.395 184.699 125.531 176.594 122.917 176.594C122.917 181.383 124.732 185.804 122.917 187.646C120.593 181.162 118.076 179.541 117.107 179.541C118.076 181.26 119.722 185.288 118.56 187.646C116.018 183.962 113.84 183.225 113.113 183.962C112.533 184.552 114.324 188.629 115.292 190.594" stroke="#595959" stroke-width="2.19569" stroke-linejoin="round"/>
<path d="M145.944 154.123C147.043 169.129 131.655 173.255 126.526 162.751C124.293 158.179 129.823 156.749 130.922 160.125C130.922 160.125 129.824 155.999 132.388 154.874C134.953 153.748 135.685 157.124 135.685 157.124C135.685 157.124 135.319 152.998 138.25 152.623C141.181 152.248 142.28 155.624 142.28 155.624" stroke="#595959" stroke-width="2.19569" stroke-linejoin="round"/>
<path d="M133 163.594C132.467 162.866 131.32 161.339 131 159.594" stroke="#595959" stroke-width="2.19569" stroke-linejoin="round"/>
<path d="M136 160.594C135.5 159.705 135 157.927 135 156.594" stroke="#595959" stroke-width="2.19569" stroke-linejoin="round"/>
<path d="M126.744 164.985C123.493 166.824 119.881 164.249 118.798 160.571C118.196 158.977 117.353 155.494 118.798 154.317C120.604 152.846 139.748 139.971 142.999 139.603C146.249 139.236 150.584 149.483 148.417 151.374C146.249 153.265 143.36 151.742 141.554 148.064C140.055 145.012 139.748 140.339 142.637 139.677" stroke="#595959" stroke-width="2.19569" stroke-linejoin="round"/>
<path d="M142 156.594L149 151.594" stroke="#595959" stroke-width="2.19569" stroke-linejoin="round"/>
<path d="M127 154.594L134 149.594" stroke="#595959" stroke-width="2.19569" stroke-linejoin="round"/>
<path d="M122 156.594L123 155.594" stroke="#595959" stroke-width="2.19569" stroke-linejoin="round"/>
<path d="M121 147.594C122.2 148.149 124.68 149.527 125 150.594" stroke="#595959" stroke-width="2.19569" stroke-linejoin="round"/>
<path d="M38.6392 106.594C31.4235 108.78 20.5999 114.612 15.9096 127.732C13.1195 135.536 14.1057 143.889 14.4665 146.319C14.7371 148.141 16.4147 147.631 16.992 147.048C17.3528 148.141 18.0744 149.234 19.1567 148.141C20.0226 147.266 20.2391 147.048 20.5999 145.954C21.3214 147.776 21.3215 148.141 22.4038 148.141C23.4862 148.141 24.5685 144.496 24.5685 144.496L24.9293 143.403L27.4548 146.319C29.2587 148.505 31.5678 145.152 30.7019 143.403C29.836 141.654 26.1319 139.759 24.9293 139.03C27.5751 133.684 34.6706 126.638 39 126.274" stroke="#595959" stroke-width="2.19569" stroke-linejoin="round"/>
</svg>
