<svg width="173" height="203" viewBox="0 0 173 203" fill="none" xmlns="http://www.w3.org/2000/svg">
<path d="M115.83 128.833C122.567 139.605 131.039 153.486 134.497 158.859" stroke="#595959" stroke-width="2.19569" stroke-linecap="round"/>
<path d="M93 145.047C99.0984 152.536 120.258 173.77 121.215 174.945" stroke="#595959" stroke-width="2.19569" stroke-linecap="round"/>
<path d="M119.34 88.4996C125.97 93.9129 137.852 97.1575 144.268 96.6825" stroke="#595959" stroke-width="2.19569" stroke-linecap="round"/>
<path d="M147.487 94.9112C149.304 93.827 150.86 92.2159 152.621 91.2177" stroke="#595959" stroke-width="2.19569" stroke-linecap="round"/>
<path d="M150.244 98.4791C152.452 98.3923 154.519 98.6308 156.054 98.974" stroke="#595959" stroke-width="2.19569" stroke-linecap="round"/>
<path d="M145.415 100.858C146.105 101.356 148.856 102.109 150.054 102.974" stroke="#595959" stroke-width="2.19569" stroke-linecap="round"/>
<path d="M41.5593 56.2933C45.3089 48.597 53.5879 44.1905 62.0661 45.3784L104.645 51.3441C113.124 52.532 119.873 59.0441 121.363 67.4745L128.847 109.813C130.337 118.244 126.229 126.675 118.672 130.697L80.7182 150.898C73.161 154.921 63.8731 153.619 57.7122 147.675L26.7715 117.821C20.6107 111.877 18.9782 102.641 22.7279 94.945L41.5593 56.2933Z" fill="#BCCF00"/>
<path d="M72 88.3823C78.905 90.4701 90.6369 92.659 97 81.0469" stroke="#595959" stroke-width="2.19569" stroke-linecap="round"/>
<path d="M87 78.0469C87.4354 79.6979 87.7499 81.0588 88 82.0469" stroke="#595959" stroke-width="2.19569" stroke-linecap="round"/>
<path d="M84 79.0469C84.4354 80.6979 84.7499 82.0588 85 83.0469" stroke="#595959" stroke-width="2.19569" stroke-linecap="round"/>
<path d="M56 132.047C53.0689 141.249 46.8755 170.579 46.4154 172.024" stroke="#595959" stroke-width="2.19569" stroke-linecap="round"/>
<path d="M89.9057 141.654C83.9141 156.252 78.8864 170.482 75.5569 180.113" stroke="#595959" stroke-width="2.19569" stroke-linecap="round"/>
<path d="M46.2607 174.508C49.9228 179.564 55.1285 182.358 61.0823 184.63C64.0587 185.766 77.8295 190.913 82.4684 186.04C82.6187 182.736 80.1933 180.105 77.409 178.414" stroke="#595959" stroke-width="2.19569" stroke-linecap="round" stroke-linejoin="round"/>
<path d="M135.04 155.589C137.933 154.162 141.429 153.54 144.134 155.44C145.793 161.947 134.193 170.732 131.666 172.619C129.279 174.401 128.35 175.17 125.292 176.546" stroke="#595959" stroke-width="2.19569" stroke-linecap="round" stroke-linejoin="round"/>
<path d="M34.9602 122.907C31.2604 130.625 21.8836 138.612 15.8737 140.909" stroke="#595959" stroke-width="2.19569" stroke-linecap="round"/>
<path d="M12.2469 140.957C10.1418 140.748 8.04831 139.951 6.0299 139.796" stroke="#595959" stroke-width="2.19569" stroke-linecap="round"/>
<path d="M11.6235 145.502C9.5877 146.362 7.81804 147.456 6.57475 148.419" stroke="#595959" stroke-width="2.19569" stroke-linecap="round"/>
<path d="M16.8745 146.532C16.4617 147.276 14.2911 149.128 13.5747 150.419" stroke="#595959" stroke-width="2.19569" stroke-linecap="round"/>
<path d="M51.171 119.022C45.8713 122.299 51.7147 118.738 51.9729 118.577C58.1774 114.706 59.0903 103.462 53.8868 92.8063C48.4669 81.7072 38.4634 75.449 31.5435 78.8282C29.9409 79.6107 28.6443 80.8416 27.6651 82.4089" stroke="#595959" stroke-width="2.19569"/>
<path d="M49.1527 96.6771C51.8476 102.196 53.1422 107.824 52.9479 112.425C52.7525 117.05 51.0837 120.396 48.1243 121.841C45.1204 123.308 41.0053 122.721 36.817 120.217C32.6619 117.733 28.6336 113.464 25.9654 108C23.2843 102.51 22.2521 96.9163 22.7 92.3397C23.15 87.7425 25.0581 84.357 28.0619 82.8902C31.0657 81.4233 34.9089 82.0003 38.8109 84.4724C42.6954 86.9333 46.4717 91.1867 49.1527 96.6771Z" stroke="#595959" stroke-width="2.19569"/>
<path d="M26.6094 82.0469C22.4794 67.2252 20.4145 41.9552 43.008 33.5726C63.0506 26.1363 76.5338 36.8528 82 43.4132" stroke="#595959" stroke-width="2.19569"/>
<path d="M32.5337 78.0469C29.6997 67.1256 29.0841 44.8446 46.2105 39.0944C62.4748 33.6336 72.4553 40.1863 78 46.0111" stroke="#595959" stroke-width="2.19569"/>
<path d="M31.877 95.5959C30.3072 97.0296 31.877 100.856 34.8163 102.72C31.2278 102.72 29.0064 106.409 30.4417 107.9C31.877 109.392 34.8163 109.804 36.6106 105.703C36.6106 107.567 41.207 111.629 42.6424 109.392C43.7907 107.602 41.5659 104.545 39.0539 103.799C40.8481 102.556 44.0777 98.5791 42.6423 97.0876C40.8481 95.2233 39.054 97.8331 37.2598 100.443L37.2598 100.443C36.5421 97.0875 33.9615 93.6923 31.877 95.5959Z" stroke="#595959" stroke-width="2.19569" stroke-linejoin="round"/>
<path d="M77 48.4288C78.8033 45.9351 81.6885 41.6346 91.0656 43.5049C97.918 45.0011 99 51.0469 99 51.0469" stroke="#595959" stroke-width="2.19569" stroke-linejoin="round"/>
</svg>
