<svg width="234" height="36" viewBox="0 0 234 36" fill="none" xmlns="http://www.w3.org/2000/svg">
<g clip-path="url(#clip0_80_1483)">
<path d="M145.958 8.4122L144.592 2.05258L138.394 3.70137L137.96 2.05258L145.858 7.62479e-08L147.591 8.04206L145.958 8.4122Z" fill="black"/>
<path d="M141.693 20.3575C142.026 21.8717 142.426 23.1504 142.893 24.1935C143.359 25.2366 143.826 26.1788 144.292 27.02C144.759 27.8612 145.159 28.4669 145.492 28.8707L145.958 29.4763L144.259 30.4185C144.126 30.2839 143.926 30.0484 143.692 29.7792C143.459 29.4764 143.059 28.8707 142.459 27.8949C141.893 26.919 141.36 25.9096 140.926 24.8665C140.493 23.8234 140.093 22.4774 139.693 20.8286C139.294 19.1798 139.127 17.4974 139.127 15.8486C139.127 14.1998 139.294 12.5174 139.66 10.9022C139.993 9.28707 140.427 7.90747 140.926 6.79706C141.426 5.68665 141.926 4.67719 142.426 3.83597C142.926 2.99475 143.359 2.32177 143.692 1.88434L144.225 1.24501L145.925 2.18718C145.792 2.32177 145.625 2.55731 145.425 2.8265C145.225 3.09569 144.825 3.70137 144.259 4.64354C143.692 5.5857 143.226 6.52787 142.826 7.50369C142.426 8.4795 142.026 9.75815 141.693 11.2724C141.326 12.7865 141.16 14.3344 141.16 15.8486C141.16 17.3628 141.393 18.877 141.693 20.3575Z" fill="black"/>
<path d="M156.789 8.64775L169.418 8.64775L169.418 10.6667L164.186 10.6667L164.186 23.5878L162.02 23.5878L162.02 10.6667L156.789 10.6667L156.789 8.64775Z" fill="black"/>
<path d="M187.546 14.0988C187.546 12.9884 187.213 12.1136 186.513 11.4069C185.813 10.734 184.947 10.3638 183.847 10.3638C183.081 10.3638 182.348 10.5321 181.648 10.9022C180.948 11.2723 180.448 11.6425 180.148 12.0126L179.682 12.551L178.282 11.1377C178.349 11.0704 178.416 10.9695 178.515 10.8349C178.615 10.7003 178.849 10.4984 179.215 10.1619C179.582 9.85909 179.948 9.55625 180.348 9.32071C180.748 9.08517 181.248 8.84963 181.881 8.64773C182.514 8.44584 183.181 8.34489 183.814 8.34489C185.513 8.34489 186.88 8.88328 188.013 9.99369C189.112 11.1041 189.679 12.45 189.679 14.0988L189.679 23.5878L187.513 23.5878L187.513 21.5689C187.48 21.6362 187.413 21.7035 187.313 21.8044C187.213 21.9054 187.046 22.1073 186.746 22.3764C186.447 22.6456 186.147 22.8812 185.78 23.0831C185.447 23.285 184.98 23.4869 184.447 23.6214C183.881 23.7897 183.314 23.857 182.714 23.857C181.248 23.857 180.015 23.4196 178.982 22.5447C177.982 21.6698 177.482 20.6604 177.482 19.5163C177.482 18.2713 177.849 17.2618 178.582 16.4879C179.315 15.714 180.382 15.2092 181.781 15.0074L187.546 14.0988ZM186.213 20.4921C187.113 19.5836 187.546 18.3722 187.546 16.9253L187.546 15.9832L182.448 16.9253C180.615 17.2955 179.682 18.1703 179.682 19.5836C179.682 20.2566 179.948 20.795 180.515 21.2324C181.081 21.6698 181.815 21.9054 182.781 21.9054C184.181 21.8717 185.314 21.4006 186.213 20.4921Z" fill="black"/>
<path d="M202.309 23.5878L200.143 23.5878L200.143 8.64775L202.309 8.64775L202.309 16.5889L209.707 8.64775L212.339 8.64775L206.641 14.7045L212.939 23.5878L210.473 23.5878L205.241 16.286L202.309 19.4154L202.309 23.5878Z" fill="black"/>
<path d="M229.834 11.2387C229.501 9.7245 229.101 8.44584 228.635 7.40273C228.168 6.35962 227.702 5.41745 227.235 4.57623C226.769 3.73501 226.369 3.12933 226.035 2.72555L225.569 2.11987L227.268 1.1777C227.402 1.3123 227.602 1.54784 227.835 1.81703C228.068 2.08622 228.468 2.72555 229.068 3.70136C229.634 4.67718 230.168 5.68664 230.601 6.72975C231.034 7.77287 231.467 9.11882 231.834 10.7676C232.2 12.4164 232.367 14.0988 232.367 15.7476C232.367 17.3964 232.2 19.0789 231.834 20.694C231.5 22.3091 231.067 23.6887 230.567 24.7992C230.068 25.9096 229.568 26.919 229.068 27.7603C228.568 28.6351 228.168 29.2744 227.802 29.7119L227.268 30.3512L225.569 29.409C225.702 29.2744 225.869 29.0389 226.069 28.7697C226.269 28.5005 226.669 27.8948 227.235 26.9527C227.802 26.0105 228.268 25.0683 228.668 24.0925C229.068 23.1167 229.468 21.8381 229.801 20.3239C230.168 18.8097 230.334 17.2618 230.334 15.7476C230.334 14.2334 230.168 12.7529 229.834 11.2387Z" fill="black"/>
<path d="M225.035 32L223.603 23.8906L225.235 23.5878L226.368 29.9811L232.633 28.5342L233 30.183L225.035 32Z" fill="black"/>
<path d="M0 9.35437L12.6297 9.35437L12.6297 11.3733L7.39788 11.3733L7.39788 24.2944L5.23184 24.2944L5.23184 11.3733L1.37884e-10 11.3733L0 9.35437Z" fill="black"/>
<path d="M22.2937 17.5983C22.3604 18.9443 22.9269 20.122 23.9266 21.0978C24.9263 22.0736 26.1593 22.5447 27.5256 22.5447C28.4586 22.5447 29.2917 22.3428 30.0915 21.939C30.8913 21.5352 31.4578 21.0978 31.791 20.694L32.3242 20.0883L33.7238 21.5016C33.6571 21.5689 33.5905 21.7035 33.4572 21.8381C33.3572 21.9727 33.0906 22.2418 32.6908 22.5783C32.2909 22.9148 31.891 23.2513 31.4578 23.5205C31.0246 23.7897 30.4247 24.0252 29.7249 24.2608C29.0251 24.4963 28.292 24.5973 27.5589 24.5973C25.5595 24.5973 23.7933 23.857 22.3604 22.3428C20.9275 20.8286 20.1943 19.0116 20.1943 16.8244C20.1943 14.6372 20.9275 12.8202 22.3604 11.306C23.7933 9.79179 25.4928 9.05151 27.4256 9.05151C29.425 9.05151 31.1245 9.75814 32.4908 11.1714C33.8571 12.5846 34.5236 14.368 34.5236 16.5215L34.3569 17.632L22.2937 17.5983ZM23.9932 12.45C23.0269 13.3586 22.4604 14.469 22.2937 15.714L32.2909 15.714C32.1243 14.368 31.5911 13.2576 30.658 12.3827C29.7249 11.5079 28.6253 11.0704 27.359 11.0704C26.0926 11.0704 24.9596 11.5079 23.9932 12.45Z" fill="black"/>
<path d="M54.4843 11.4069L46.0201 11.4069L46.0201 24.2944L43.854 24.2944L43.854 9.35437L56.6503 9.35437L56.6503 24.2944L54.4843 24.2944L54.4843 11.4069Z" fill="black"/>
<path d="M68.1805 17.5983C68.2471 18.9443 68.8136 20.122 69.8133 21.0978C70.813 22.0736 72.0127 22.5783 73.4123 22.5783C74.3454 22.5783 75.1785 22.3764 75.9782 21.9726C76.778 21.5689 77.3445 21.1314 77.6777 20.7276L78.2109 20.122L79.6105 21.5352C79.5439 21.6025 79.4772 21.7371 79.3439 21.8717C79.244 22.0063 78.9774 22.2755 78.5775 22.612C78.1776 22.9485 77.7777 23.2849 77.3445 23.5541C76.9113 23.8233 76.3115 24.0589 75.6117 24.2944C74.9119 24.53 74.1787 24.6309 73.4456 24.6309C71.4462 24.6309 69.68 23.8906 68.2471 22.3764C66.8142 20.8622 66.0811 19.0452 66.0811 16.858C66.0811 14.6709 66.8142 12.8538 68.2471 11.3396C69.68 9.82543 71.3795 9.08516 73.3123 9.08516C75.3118 9.08516 77.0113 9.79178 78.3775 11.205C79.7438 12.6183 80.4103 14.4017 80.4103 16.5552L80.2437 17.6656L68.1805 17.5983ZM69.88 12.45C68.9136 13.3586 68.3471 14.469 68.1805 15.714L78.1776 15.714C78.011 14.368 77.4778 13.2576 76.5447 12.3827C75.6117 11.5079 74.512 11.0704 73.2457 11.0704C71.9794 11.0704 70.8464 11.5079 69.88 12.45Z" fill="black"/>
<path d="M91.8736 30.7886L89.7075 30.7886L89.7075 9.35435L91.8736 9.35435L91.8736 11.6761C91.9069 11.6088 91.9735 11.5079 92.1068 11.4069C92.2068 11.2723 92.4401 11.0704 92.74 10.7676C93.0399 10.4648 93.4065 10.1956 93.8063 9.96003C94.1729 9.72449 94.6728 9.5226 95.2726 9.3207C95.8724 9.11881 96.4722 9.05151 97.1054 9.05151C99.0049 9.05151 100.638 9.82544 102.071 11.3396C103.504 12.8538 104.203 14.7045 104.203 16.8244C104.203 18.9443 103.504 20.7949 102.071 22.3091C100.671 23.8233 99.0049 24.5973 97.1054 24.5973C96.4722 24.5973 95.8724 24.4963 95.2726 24.3281C94.6728 24.1598 94.2062 23.9243 93.8063 23.6887C93.4065 23.4532 93.0732 23.184 92.7733 22.9148C92.4734 22.6456 92.2401 22.4437 92.1068 22.2418L91.9069 21.939L91.9069 30.7886L91.8736 30.7886ZM93.5064 20.8286C94.5728 21.9726 95.8058 22.5447 97.1387 22.5447C98.405 22.5447 99.538 21.9727 100.571 20.8622C101.571 19.7518 102.071 18.3722 102.071 16.7907C102.071 15.2092 101.571 13.8296 100.571 12.7192C99.5714 11.6088 98.4383 11.0368 97.1387 11.0368C95.8058 11.0368 94.6061 11.6088 93.5064 12.7529C92.4067 13.8969 91.8736 15.2429 91.8736 16.7907C91.8736 18.3386 92.4067 19.6845 93.5064 20.8286Z" fill="black"/>
<path d="M123.531 22.9148C122.565 23.8234 121.265 24.2944 119.599 24.2944L113.567 24.2944L113.567 9.35437L115.733 9.35437L115.733 14.3344L119.599 14.3344C121.265 14.3344 122.565 14.8055 123.531 15.714C124.498 16.6225 124.964 17.8339 124.964 19.3144C124.964 20.795 124.498 22.0063 123.531 22.9148ZM119.632 22.2419C120.599 22.2419 121.365 21.9727 121.965 21.4006C122.565 20.8286 122.831 20.122 122.831 19.2808C122.831 18.4395 122.531 17.6993 121.965 17.1609C121.398 16.6225 120.599 16.3533 119.599 16.3533L115.733 16.3533L115.733 22.2755L119.632 22.2755L119.632 22.2419Z" fill="black"/>
</g>
<defs>
<clipPath id="clip0_80_1483">
<rect width="233.243" height="35.9647" fill="white"/>
</clipPath>
</defs>
</svg>
