<svg width="822" height="193" viewBox="0 0 822 193" fill="none" xmlns="http://www.w3.org/2000/svg">
<g clip-path="url(#clip0_350_7966)">
<path d="M686.225 84.2564L684.108 74.4042L674.506 76.9585L673.835 74.4042L686.07 71.2244L688.755 83.683L686.225 84.2564Z" fill="black"/>
<path d="M679.617 102.762C680.133 105.108 680.753 107.089 681.476 108.705C682.198 110.321 682.921 111.78 683.644 113.084C684.367 114.387 684.986 115.325 685.502 115.951L686.225 116.889L683.592 118.349C683.386 118.14 683.076 117.775 682.715 117.358C682.353 116.889 681.734 115.951 680.805 114.439C679.927 112.927 679.101 111.363 678.43 109.747C677.759 108.131 677.139 106.046 676.52 103.492C675.9 100.938 675.642 98.3313 675.642 95.777C675.642 93.2227 675.9 90.6163 676.468 88.1141C676.984 85.612 677.655 83.4747 678.43 81.7545C679.204 80.0343 679.979 78.4704 680.753 77.1672C681.527 75.864 682.198 74.8214 682.715 74.1438L683.541 73.1533L686.173 74.6129C685.967 74.8214 685.709 75.1863 685.399 75.6034C685.089 76.0204 684.47 76.9587 683.592 78.4183C682.715 79.8779 681.992 81.3375 681.372 82.8492C680.753 84.3609 680.133 86.3418 679.617 88.6876C679.049 91.0333 678.791 93.4312 678.791 95.777C678.791 98.1228 679.153 100.469 679.617 102.762Z" fill="black"/>
<path d="M703.003 84.6216L722.569 84.6216L722.569 87.7493L714.464 87.7493L714.464 107.767L711.108 107.767L711.108 87.7493L703.003 87.7493L703.003 84.6216Z" fill="black"/>
<path d="M750.653 93.0658C750.653 91.3456 750.137 89.9902 749.053 88.8955C747.968 87.853 746.626 87.2796 744.923 87.2796C743.735 87.2796 742.599 87.5402 741.515 88.1136C740.431 88.687 739.657 89.2604 739.192 89.8338L738.47 90.6679L736.301 88.4785C736.405 88.3742 736.508 88.2179 736.663 88.0094C736.818 87.8008 737.179 87.4881 737.747 86.9668C738.315 86.4976 738.883 86.0285 739.502 85.6636C740.122 85.2987 740.896 84.9338 741.877 84.621C742.858 84.3082 743.89 84.1519 744.871 84.1519C747.504 84.1519 749.62 84.9859 751.376 86.7061C753.079 88.4264 753.957 90.5115 753.957 93.0658L753.957 107.766L750.601 107.766L750.601 104.638C750.55 104.743 750.446 104.847 750.292 105.003C750.137 105.16 749.879 105.472 749.414 105.889C748.949 106.306 748.485 106.671 747.917 106.984C747.401 107.297 746.678 107.61 745.852 107.818C744.974 108.079 744.097 108.183 743.167 108.183C740.896 108.183 738.986 107.505 737.385 106.15C735.837 104.795 735.062 103.231 735.062 101.458C735.062 99.5297 735.63 97.9659 736.766 96.7669C737.902 95.568 739.554 94.786 741.722 94.4733L750.653 93.0658ZM748.588 102.97C749.982 101.563 750.653 99.6861 750.653 97.4446L750.653 95.985L742.754 97.4446C739.915 98.018 738.47 99.3733 738.47 101.563C738.47 102.605 738.883 103.439 739.76 104.117C740.638 104.795 741.773 105.16 743.271 105.16C745.439 105.107 747.194 104.378 748.588 102.97Z" fill="black"/>
<path d="M773.523 107.767L770.167 107.767L770.167 84.6216L773.523 84.6216L773.523 96.9239L784.983 84.6216L789.062 84.6216L780.234 94.0047L789.991 107.767L786.171 107.767L778.066 96.4547L773.523 101.303L773.523 107.767Z" fill="black"/>
<path d="M816.165 88.6352C815.648 86.2894 815.029 84.3085 814.306 82.6926C813.583 81.0766 812.861 79.617 812.138 78.3138C811.415 77.0106 810.796 76.0723 810.279 75.4467L809.557 74.5084L812.19 73.0488C812.396 73.2573 812.706 73.6222 813.067 74.0393C813.429 74.4563 814.048 75.4467 814.977 76.9584C815.855 78.4702 816.681 80.034 817.352 81.65C818.023 83.266 818.694 85.3511 819.262 87.9054C819.83 90.4597 820.088 93.0661 820.088 95.6204C820.088 98.1747 819.83 100.781 819.262 103.283C818.746 105.785 818.075 107.923 817.3 109.643C816.526 111.363 815.752 112.927 814.977 114.23C814.203 115.586 813.583 116.576 813.016 117.254L812.19 118.244L809.557 116.784C809.763 116.576 810.021 116.211 810.331 115.794C810.641 115.377 811.26 114.439 812.138 112.979C813.016 111.52 813.738 110.06 814.358 108.548C814.977 107.036 815.597 105.056 816.113 102.71C816.681 100.364 816.939 97.9662 816.939 95.6204C816.939 93.2746 816.681 90.981 816.165 88.6352Z" fill="black"/>
<path d="M808.731 120.799L806.511 108.236L809.04 107.767L810.796 117.671L820.501 115.429L821.069 117.984L808.731 120.799Z" fill="black"/>
<path d="M460.108 85.7163L479.674 85.7163L479.674 88.844L471.569 88.844L471.569 108.861L468.214 108.861L468.214 88.844L460.108 88.844L460.108 85.7163Z" fill="black"/>
<path d="M494.645 98.4879C494.749 100.573 495.626 102.398 497.175 103.909C498.724 105.421 500.634 106.151 502.75 106.151C504.196 106.151 505.487 105.838 506.726 105.212C507.965 104.587 508.842 103.909 509.358 103.284L510.184 102.345L512.353 104.535C512.249 104.639 512.146 104.848 511.94 105.056C511.785 105.265 511.372 105.682 510.752 106.203C510.133 106.724 509.513 107.245 508.842 107.662C508.171 108.08 507.242 108.444 506.158 108.809C505.074 109.174 503.938 109.331 502.802 109.331C499.705 109.331 496.968 108.184 494.749 105.838C492.529 103.492 491.393 100.677 491.393 97.2889C491.393 93.9006 492.529 91.0857 494.749 88.7399C496.968 86.3941 499.601 85.2473 502.596 85.2473C505.693 85.2473 508.326 86.342 510.443 88.5314C512.559 90.7208 513.592 93.4836 513.592 96.8198L513.334 98.54L494.645 98.4879ZM497.278 90.5123C495.781 91.9197 494.903 93.64 494.645 95.5687L510.133 95.5687C509.875 93.4836 509.049 91.7634 507.603 90.408C506.158 89.0527 504.454 88.375 502.492 88.375C500.531 88.375 498.775 89.0527 497.278 90.5123Z" fill="black"/>
<path d="M544.515 88.8961L531.402 88.8961L531.402 108.861L528.047 108.861L528.047 85.7163L547.871 85.7163L547.871 108.861L544.515 108.861L544.515 88.8961Z" fill="black"/>
<path d="M565.733 98.4873C565.836 100.572 566.714 102.397 568.262 103.909C569.811 105.42 571.67 106.202 573.838 106.202C575.283 106.202 576.574 105.89 577.813 105.264C579.052 104.638 579.93 103.961 580.446 103.335L581.272 102.397L583.44 104.586C583.337 104.691 583.234 104.899 583.027 105.108C582.872 105.316 582.459 105.733 581.84 106.254C581.22 106.776 580.601 107.297 579.93 107.714C579.259 108.131 578.329 108.496 577.245 108.861C576.161 109.226 575.025 109.382 573.89 109.382C570.792 109.382 568.056 108.235 565.836 105.89C563.616 103.544 562.48 100.729 562.48 97.3405C562.48 93.9521 563.616 91.1372 565.836 88.7914C568.056 86.4457 570.689 85.2988 573.683 85.2988C576.781 85.2988 579.413 86.3935 581.53 88.5829C583.647 90.7723 584.679 93.5351 584.679 96.8713L584.421 98.5915L565.733 98.4873ZM568.366 90.5117C566.869 91.9191 565.991 93.6394 565.733 95.5681L581.22 95.5681C580.962 93.483 580.136 91.7627 578.691 90.4074C577.245 89.0521 575.542 88.3744 573.58 88.3744C571.618 88.3744 569.863 89.0521 568.366 90.5117Z" fill="black"/>
<path d="M602.438 118.921L599.082 118.921L599.082 85.7157L602.438 85.7157L602.438 89.3126C602.49 89.2083 602.593 89.0519 602.799 88.8956C602.954 88.6871 603.316 88.3743 603.78 87.9051C604.245 87.436 604.813 87.0189 605.432 86.654C606 86.2891 606.775 85.9764 607.704 85.6636C608.633 85.3508 609.562 85.2466 610.543 85.2466C613.486 85.2466 616.015 86.4455 618.235 88.7913C620.455 91.1371 621.539 94.0041 621.539 97.2882C621.539 100.572 620.455 103.439 618.235 105.785C616.067 108.131 613.486 109.33 610.543 109.33C609.562 109.33 608.633 109.173 607.704 108.913C606.775 108.652 606.052 108.287 605.432 107.922C604.813 107.557 604.297 107.14 603.832 106.723C603.367 106.306 603.006 105.994 602.799 105.681L602.49 105.212L602.49 118.921L602.438 118.921ZM604.968 103.491C606.62 105.264 608.53 106.15 610.595 106.15C612.557 106.15 614.312 105.264 615.912 103.544C617.461 101.823 618.235 99.6861 618.235 97.2361C618.235 94.7861 617.461 92.6488 615.912 90.9286C614.363 89.2083 612.608 88.3222 610.595 88.3222C608.53 88.3222 606.671 89.2083 604.968 90.9807C603.264 92.7531 602.438 94.8382 602.438 97.2361C602.438 99.634 603.264 101.719 604.968 103.491Z" fill="black"/>
<path d="M651.482 106.724C649.985 108.131 647.971 108.861 645.39 108.861L636.046 108.861L636.046 85.7163L639.401 85.7163L639.401 93.4313L645.39 93.4313C647.971 93.4313 649.985 94.1611 651.482 95.5686C652.979 96.976 653.702 98.8526 653.702 101.146C653.702 103.44 652.979 105.317 651.482 106.724ZM645.442 105.681C646.939 105.681 648.126 105.264 649.055 104.378C649.985 103.492 650.398 102.397 650.398 101.094C650.398 99.791 649.933 98.6441 649.055 97.8101C648.178 96.976 646.939 96.559 645.39 96.559L639.401 96.559L639.401 105.734L645.442 105.734L645.442 105.681Z" fill="black"/>
</g>
<path d="M383.333 86.5508L409.076 112.294" stroke="black" stroke-width="1.54919"/>
<path d="M409.076 86.5508L383.333 112.294" stroke="black" stroke-width="1.54919"/>
<path fill-rule="evenodd" clip-rule="evenodd" d="M274.21 73.6405L261.967 51.8706C260.738 49.8132 261.779 45.9912 264.783 45.9912L290.262 45.9827C292.213 45.9827 294.936 48.3879 292.947 52.1123L281.04 73.6956C279.488 76.6099 275.88 76.4699 274.206 73.6405M287.019 52.3202L278.271 68.1429C277.579 69.3985 277.596 69.2797 276.799 67.8629L268.764 53.6522C267.556 51.5354 267.317 51.0985 268.294 51.0943H286.603C287.837 51.09 287.56 51.3403 287.023 52.316L287.019 52.3202Z" fill="#27214D"/>
<path fill-rule="evenodd" clip-rule="evenodd" d="M112.197 111.483L102.66 94.519C101.704 92.9156 102.513 89.9377 104.855 89.9377L124.708 89.9292C126.226 89.9292 128.349 91.8042 126.801 94.7057L117.525 111.521C116.317 113.79 113.506 113.684 112.201 111.479M122.186 94.8669L115.368 107.194C114.827 108.174 114.84 108.081 114.223 106.978L107.963 95.9062C107.024 94.256 106.835 93.9167 107.598 93.9167H121.863C122.824 93.9124 122.606 94.1076 122.19 94.8669H122.186Z" fill="#27214D"/>
<path d="M143.595 48.2732C143.23 48.2732 142.874 48.1883 142.521 48.0144L142.773 47.4121C143.012 47.5351 143.277 47.5987 143.562 47.5987C143.788 47.5987 143.981 47.5266 144.137 47.3866C144.292 47.2466 144.447 46.9963 144.594 46.64L142.299 41.5581H143.13L144.963 45.8128L146.583 41.5581H147.384L145.265 46.8267C145.051 47.3484 144.812 47.7175 144.552 47.9381C144.292 48.1586 143.969 48.2689 143.587 48.2689M139.001 46.1564C139.471 46.1564 139.866 46.0292 140.193 45.7704C140.516 45.5116 140.68 45.185 140.68 44.782V44.3069C140.185 44.1627 139.694 44.0906 139.207 44.0906C138.745 44.0906 138.385 44.1839 138.125 44.3705C137.864 44.5572 137.734 44.8117 137.734 45.1341C137.734 45.4565 137.856 45.6898 138.099 45.8722C138.343 46.0546 138.645 46.1479 139.001 46.1479V46.1564ZM138.855 46.7673C138.339 46.7673 137.898 46.6273 137.529 46.3431C137.16 46.0589 136.971 45.6644 136.971 45.1596C136.971 44.6251 137.168 44.2136 137.558 43.9251C137.948 43.6367 138.473 43.4925 139.131 43.4925C139.652 43.4925 140.168 43.5646 140.675 43.7088V43.5518C140.675 43.1064 140.545 42.7628 140.285 42.5253C140.025 42.2877 139.656 42.1689 139.182 42.1689C138.708 42.1689 138.175 42.292 137.65 42.5338L137.424 41.9102C138.049 41.6217 138.662 41.4775 139.257 41.4775C139.975 41.4775 140.516 41.6642 140.889 42.0417C141.242 42.398 141.418 42.8986 141.418 43.5434V46.6612H140.675V45.9019C140.227 46.4788 139.622 46.7715 138.859 46.7715L138.855 46.7673ZM130.48 46.6994L128.714 41.5581H129.515L130.841 45.6516L132.196 41.5369H132.821L134.189 45.6516L135.515 41.5581H136.295L134.521 46.6994H133.866L132.511 42.6737L131.143 46.6994H130.48ZM123.277 46.6612V41.5581H124.028V42.4447C124.426 41.7787 125.001 41.4478 125.756 41.4478C126.356 41.4478 126.826 41.6345 127.17 42.0035C127.514 42.3768 127.686 42.8689 127.686 43.4882V46.657H126.935V43.6749C126.935 43.1955 126.813 42.818 126.57 42.5465C126.327 42.275 125.983 42.135 125.542 42.135C125.102 42.135 124.745 42.2835 124.46 42.5804C124.175 42.8774 124.032 43.2591 124.032 43.7342V46.657H123.281L123.277 46.6612ZM117.948 43.8106H121.2C121.154 43.3185 120.994 42.9071 120.717 42.5804C120.441 42.2538 120.067 42.0926 119.589 42.0926C119.161 42.0926 118.792 42.2538 118.485 42.5762C118.179 42.8986 117.999 43.31 117.948 43.8106ZM117.948 44.4214C117.999 44.9432 118.196 45.3547 118.527 45.6601C118.863 45.9655 119.262 46.1182 119.723 46.1182C120.327 46.1182 120.86 45.8765 121.313 45.3971L121.783 45.8213C121.217 46.4576 120.524 46.78 119.706 46.78C118.997 46.78 118.402 46.5297 117.915 46.0334C117.428 45.5371 117.189 44.8966 117.189 44.116C117.189 43.3355 117.42 42.7416 117.881 42.2283C118.343 41.7108 118.918 41.452 119.61 41.452C120.302 41.452 120.906 41.7066 121.326 42.2199C121.75 42.7331 121.959 43.3779 121.959 44.1542C121.959 44.2518 121.959 44.3408 121.951 44.4214H117.948ZM112.171 43.8106H115.423C115.377 43.3185 115.217 42.9071 114.94 42.5804C114.663 42.2538 114.29 42.0926 113.812 42.0926C113.384 42.0926 113.015 42.2538 112.708 42.5762C112.402 42.8986 112.222 43.31 112.171 43.8106ZM112.171 44.4214C112.222 44.9432 112.419 45.3547 112.75 45.6601C113.086 45.9655 113.484 46.1182 113.946 46.1182C114.55 46.1182 115.083 45.8765 115.536 45.3971L116.006 45.8213C115.439 46.4576 114.747 46.78 113.929 46.78C113.22 46.78 112.624 46.5297 112.138 46.0334C111.651 45.5371 111.412 44.8966 111.412 44.116C111.412 43.3355 111.643 42.7416 112.104 42.2283C112.566 41.7108 113.14 41.452 113.833 41.452C114.525 41.452 115.129 41.7066 115.549 42.2199C115.972 42.7331 116.182 43.3779 116.182 44.1542C116.182 44.2518 116.182 44.3408 116.174 44.4214H112.171ZM107.984 46.6612V41.5581H108.735V42.8901C108.928 42.4489 109.205 42.0968 109.566 41.8338C109.922 41.5708 110.334 41.4478 110.795 41.469V42.2877H110.736C110.157 42.2877 109.679 42.4913 109.301 42.8986C108.924 43.3058 108.735 43.8827 108.735 44.6251V46.657H107.984V46.6612ZM106.373 45.7237C105.593 46.4279 104.678 46.78 103.629 46.78C102.58 46.78 101.741 46.4406 101.108 45.7577C100.474 45.079 100.155 44.2263 100.155 43.2082C100.155 42.1902 100.478 41.3969 101.12 40.6927C101.766 39.9886 102.584 39.6365 103.579 39.6365C104.124 39.6365 104.594 39.7128 104.989 39.8613C105.383 40.014 105.76 40.2431 106.125 40.5527L105.626 41.1466C105.026 40.6206 104.334 40.3576 103.549 40.3576C102.765 40.3576 102.182 40.6376 101.691 41.1933C101.2 41.749 100.952 42.4235 100.952 43.2125C100.952 44.0482 101.2 44.7354 101.691 45.2741C102.182 45.8128 102.836 46.0843 103.659 46.0843C104.414 46.0843 105.072 45.8552 105.63 45.3929V43.6749H103.554V42.9749H106.373V45.728V45.7237Z" fill="black"/>
<path d="M95.9894 63.8242C95.9894 74.7558 88.4627 81.3946 78.5613 81.3946C67.4474 81.3946 59.4634 73.1184 59.4634 62.8528C59.4634 52.5872 67.5985 44.2092 78.0033 44.2092C84.7748 44.2092 90.4807 47.5816 93.4637 52.3836L86.5915 56.3668C85.1272 54.0167 81.9429 52.1799 77.9529 52.1799C71.9911 52.1799 67.5439 56.6256 67.5439 62.9079C67.5439 69.1903 71.7898 73.4323 78.6578 73.4323C83.3568 73.4323 86.4362 71.3368 87.7033 67.9135H78.255V60.7615H95.9894V63.8285V63.8242Z" fill="black"/>
<path d="M115.44 54.6313V63.3147C112.306 62.8057 107.863 64.0825 107.863 69.139V80.6857H100.286V55.1446H107.863V59.692C108.874 56.2688 112.26 54.6356 115.44 54.6356V54.6313Z" fill="black"/>
<path d="M131.051 74.5526C133.124 74.5526 134.89 73.7339 135.901 72.6098L141.964 76.1349C139.488 79.6091 135.75 81.3949 130.95 81.3949C122.312 81.3949 116.954 75.5198 116.954 67.9096C116.954 60.2995 122.408 54.4243 130.392 54.4243C137.768 54.4243 143.227 60.1977 143.227 67.9096C143.227 68.9829 143.126 70.0052 142.924 70.9766H124.989C125.949 73.6321 128.274 74.5526 131.051 74.5526ZM135.7 65.2541C134.89 62.289 132.616 61.22 130.342 61.22C127.464 61.22 125.542 62.6495 124.833 65.2541H135.696H135.7Z" fill="black"/>
<path d="M160.101 74.5526C162.173 74.5526 163.94 73.7339 164.951 72.6098L171.013 76.1349C168.538 79.6091 164.8 81.3949 160 81.3949C151.361 81.3949 146.004 75.5198 146.004 67.9096C146.004 60.2995 151.462 54.4243 159.442 54.4243C166.818 54.4243 172.276 60.1977 172.276 67.9096C172.276 68.9829 172.175 70.0052 171.974 70.9766H154.038C154.999 73.6321 157.323 74.5526 160.101 74.5526ZM164.749 65.2541C163.94 62.289 161.666 61.22 159.396 61.22C156.518 61.22 154.596 62.6495 153.887 65.2541H164.749Z" fill="black"/>
<path d="M200.827 64.9999V80.6825H193.249V66.124C193.249 62.9552 191.278 61.4748 188.853 61.4748C186.075 61.4748 184.154 63.1079 184.154 66.7348V80.6825H176.577V55.1415H184.154V57.5424C185.517 55.6505 188.043 54.4246 191.378 54.4246C196.48 54.4246 200.827 58.1024 200.827 64.9999Z" fill="black"/>
<path d="M170.157 107.908C170.157 118.021 162.731 125.788 152.981 125.788H138.833V90.0281H152.981C162.731 90.0281 170.157 97.7909 170.157 107.908ZM162.378 107.908C162.378 101.778 158.54 97.897 152.981 97.897H146.918V117.923H152.981C158.54 117.923 162.378 114.042 162.378 107.912V107.908Z" fill="black"/>
<path d="M189.607 99.7375V108.421C186.473 107.912 182.03 109.189 182.03 114.245V125.792H174.453V100.251H182.03V104.798C183.042 101.375 186.427 99.7418 189.607 99.7418V99.7375Z" fill="black"/>
<path d="M192.385 93.4001C192.385 90.8973 194.457 88.8018 196.933 88.8018C199.408 88.8018 201.481 90.8973 201.481 93.4001C201.481 95.9029 199.408 97.9984 196.933 97.9984C194.457 97.9984 192.385 95.9029 192.385 93.4001ZM193.144 100.247H200.721V125.788H193.144V100.247Z" fill="black"/>
<path d="M230.782 100.246L221.434 125.787H212.846L203.499 100.246H211.886L217.138 116.438L222.391 100.246H230.778H230.782Z" fill="black"/>
<path d="M245.387 119.657C247.46 119.657 249.226 118.839 250.237 117.714L256.299 121.24C253.824 124.714 250.086 126.5 245.286 126.5C236.648 126.5 231.29 120.625 231.29 113.014C231.29 105.404 236.748 99.5291 244.728 99.5291C252.104 99.5291 257.562 105.302 257.562 113.014C257.562 114.088 257.462 115.11 257.26 116.081H239.324C240.285 118.737 242.61 119.657 245.387 119.657ZM250.036 110.359C249.226 107.394 246.952 106.325 244.682 106.325C241.804 106.325 239.882 107.754 239.173 110.359H250.036Z" fill="black"/>
<path d="M186.033 157.509C185.827 157.509 185.618 157.509 185.412 157.509C184.854 157.509 184.409 157.046 184.414 156.482C184.414 155.922 184.867 155.472 185.42 155.472H185.429C185.676 155.472 185.92 155.472 186.167 155.472C189.196 155.472 192.305 155.362 195.418 155.137C195.964 155.095 196.455 155.519 196.492 156.079C196.53 156.639 196.115 157.127 195.561 157.165C192.402 157.39 189.243 157.504 186.171 157.504H186.041L186.033 157.509ZM175.364 157.021C175.334 157.021 175.301 157.021 175.272 157.017C171.835 156.698 168.45 156.223 165.207 155.6C164.661 155.494 164.3 154.963 164.405 154.412C164.51 153.86 165.039 153.496 165.58 153.602C168.76 154.213 172.083 154.679 175.456 154.989C176.01 155.04 176.417 155.536 176.367 156.096C176.32 156.626 175.88 157.021 175.364 157.021ZM205.496 156.092C205.001 156.092 204.573 155.723 204.502 155.218C204.422 154.662 204.808 154.145 205.357 154.068C208.643 153.597 211.953 153.004 215.204 152.304C215.746 152.189 216.283 152.537 216.4 153.088C216.517 153.64 216.169 154.179 215.624 154.297C212.326 155.006 208.97 155.608 205.639 156.083C205.592 156.092 205.542 156.092 205.496 156.092ZM155.62 153.182C155.523 153.182 155.423 153.169 155.322 153.135C152.016 152.104 148.806 150.878 145.79 149.495C145.282 149.262 145.06 148.66 145.291 148.147C145.521 147.633 146.117 147.408 146.625 147.642C149.562 148.991 152.691 150.187 155.918 151.192C156.451 151.358 156.748 151.926 156.585 152.465C156.451 152.902 156.052 153.182 155.624 153.182H155.62ZM249.242 152.673C246.28 152.673 243.213 152.405 240.117 151.879C239.568 151.786 239.198 151.26 239.291 150.709C239.383 150.153 239.903 149.78 240.449 149.873C243.797 150.441 247.115 150.696 250.283 150.628H250.304C250.849 150.628 251.298 151.069 251.311 151.625C251.323 152.189 250.883 152.652 250.325 152.664C249.964 152.673 249.599 152.677 249.234 152.677L249.242 152.673ZM225.185 151.858C224.749 151.858 224.346 151.566 224.216 151.12C224.061 150.581 224.371 150.017 224.908 149.86C226.121 149.508 227.321 149.143 228.504 148.766C226.721 148.121 224.917 147.391 223.117 146.59C222.311 146.233 221.519 145.847 220.759 145.453C220.264 145.194 220.071 144.583 220.323 144.083C220.579 143.582 221.183 143.387 221.678 143.641C222.404 144.019 223.159 144.384 223.927 144.723C226.247 145.754 228.571 146.666 230.845 147.425C231.059 147.497 231.235 147.637 231.353 147.811C232.385 147.455 233.4 147.086 234.399 146.713C234.919 146.518 235.498 146.785 235.695 147.311C235.888 147.837 235.624 148.422 235.104 148.622C232.028 149.78 228.785 150.857 225.462 151.82C225.37 151.846 225.278 151.858 225.185 151.858ZM260.268 151.341C259.815 151.341 259.408 151.031 259.291 150.569C259.156 150.021 259.484 149.47 260.025 149.334C263.234 148.524 266.31 147.328 269.163 145.784C269.653 145.521 270.262 145.707 270.526 146.199C270.786 146.696 270.602 147.311 270.115 147.578C267.115 149.203 263.885 150.458 260.511 151.307C260.432 151.328 260.348 151.336 260.268 151.336V151.341ZM137.369 144.74C137.185 144.74 136.996 144.689 136.828 144.579C133.942 142.708 131.202 140.613 128.685 138.347C128.269 137.974 128.232 137.329 128.601 136.909C128.97 136.489 129.608 136.451 130.023 136.825C132.465 139.018 135.121 141.05 137.919 142.861C138.389 143.166 138.523 143.794 138.221 144.269C138.028 144.571 137.705 144.736 137.374 144.736L137.369 144.74ZM244.019 144.694C243.646 144.694 243.289 144.486 243.113 144.125C242.869 143.62 243.075 143.009 243.574 142.763C246.88 141.126 249.754 139.433 252.129 137.728C252.582 137.402 253.211 137.508 253.534 137.966C253.857 138.424 253.753 139.06 253.299 139.387C250.841 141.156 247.866 142.908 244.464 144.592C244.321 144.664 244.17 144.698 244.023 144.698L244.019 144.694ZM277.822 141.813C277.549 141.813 277.281 141.703 277.084 141.487C276.706 141.075 276.731 140.43 277.142 140.049C279.534 137.817 281.661 135.272 283.465 132.485C283.771 132.014 284.392 131.883 284.858 132.188C285.324 132.498 285.454 133.126 285.152 133.596C283.255 136.528 281.019 139.2 278.51 141.542C278.317 141.724 278.074 141.813 277.826 141.813H277.822ZM213.018 139.73C212.767 139.73 212.515 139.637 212.322 139.446C209.754 136.952 207.694 134.101 206.205 130.979C205.962 130.474 206.176 129.864 206.675 129.622C207.178 129.376 207.778 129.592 208.017 130.097C209.402 132.998 211.319 135.65 213.715 137.978C214.118 138.369 214.13 139.013 213.744 139.416C213.547 139.624 213.283 139.73 213.018 139.73ZM260.159 132.761C259.924 132.761 259.689 132.676 259.496 132.511C259.077 132.141 259.035 131.497 259.4 131.072C261.581 128.544 263.415 125.783 264.854 122.86C265.101 122.355 265.706 122.152 266.205 122.402C266.704 122.652 266.905 123.263 266.658 123.768C265.143 126.843 263.213 129.753 260.918 132.413C260.721 132.642 260.44 132.761 260.159 132.761ZM122.391 131.272C122.098 131.272 121.808 131.145 121.611 130.899C119.488 128.269 117.529 125.418 115.788 122.423C115.507 121.939 115.666 121.316 116.144 121.027C116.623 120.739 117.239 120.904 117.525 121.388C119.215 124.294 121.112 127.06 123.172 129.609C123.524 130.046 123.461 130.686 123.029 131.043C122.84 131.195 122.618 131.272 122.391 131.272ZM288.76 124.96C288.646 124.96 288.533 124.943 288.42 124.9C287.895 124.709 287.623 124.128 287.807 123.598C288.907 120.476 289.649 117.222 290.006 113.931C290.065 113.371 290.568 112.972 291.118 113.031C291.671 113.091 292.07 113.595 292.007 114.155C291.634 117.604 290.858 121.015 289.704 124.285C289.557 124.701 289.171 124.96 288.756 124.96H288.76ZM204.481 121.791C203.965 121.791 203.524 121.392 203.478 120.862C203.402 119.971 203.365 119.068 203.365 118.168C203.365 115.615 203.671 113.014 204.279 110.435C204.409 109.888 204.951 109.553 205.492 109.68C206.033 109.812 206.369 110.359 206.239 110.906C205.668 113.328 205.378 115.772 205.378 118.168C205.378 119.008 205.416 119.857 205.483 120.688C205.534 121.248 205.123 121.74 204.569 121.791C204.539 121.791 204.51 121.791 204.481 121.791ZM268.97 114.72C268.907 114.72 268.844 114.715 268.781 114.703C268.235 114.597 267.875 114.066 267.979 113.511C268.382 111.381 268.584 109.218 268.584 107.088C268.584 105.943 268.525 104.793 268.407 103.673C268.349 103.113 268.751 102.613 269.305 102.554C269.851 102.494 270.354 102.901 270.413 103.461C270.535 104.653 270.602 105.875 270.602 107.088C270.602 109.345 270.388 111.636 269.964 113.892C269.872 114.38 269.448 114.72 268.978 114.72H268.97ZM290.929 104.908C290.43 104.908 289.997 104.535 289.93 104.017C289.511 100.717 288.701 97.4886 287.518 94.4174C287.317 93.8956 287.572 93.3017 288.093 93.0981C288.613 92.8945 289.196 93.1533 289.397 93.6793C290.639 96.9032 291.495 100.297 291.932 103.763C292.003 104.318 291.613 104.831 291.059 104.904C291.017 104.908 290.971 104.912 290.929 104.912V104.908ZM208.94 102.244C208.773 102.244 208.605 102.201 208.45 102.112C207.963 101.837 207.795 101.217 208.064 100.725C209.742 97.7134 211.814 94.9052 214.231 92.3855C214.617 91.9825 215.255 91.974 215.653 92.3643C216.052 92.7545 216.06 93.3993 215.674 93.8023C213.379 96.1948 211.407 98.863 209.813 101.722C209.628 102.053 209.289 102.24 208.936 102.24L208.94 102.244ZM266.767 94.8076C266.389 94.8076 266.029 94.5913 265.857 94.2222C264.413 91.1256 262.483 88.5168 260.121 86.4764C259.698 86.1116 259.647 85.4668 260.008 85.0426C260.369 84.6184 261.007 84.5632 261.426 84.928C264.006 87.1551 266.108 89.993 267.677 93.3526C267.917 93.8617 267.698 94.4683 267.195 94.7058C267.056 94.7737 266.91 94.8034 266.767 94.8034V94.8076ZM222.794 87.7702C222.454 87.7702 222.123 87.5963 221.934 87.2823C221.644 86.803 221.791 86.1752 222.265 85.8825C225.19 84.0754 228.34 82.6289 231.642 81.5938C232.175 81.4284 232.737 81.7253 232.901 82.2641C233.065 82.8028 232.771 83.3712 232.238 83.5367C229.1 84.5208 226.096 85.8952 223.318 87.6175C223.155 87.7193 222.974 87.7659 222.794 87.7659V87.7702ZM283.687 86.1285C283.373 86.1285 283.062 85.98 282.865 85.7001C281.548 83.8251 280.05 82.035 278.418 80.3764C278.023 79.9776 278.028 79.3328 278.418 78.9383C278.812 78.5396 279.45 78.5438 279.84 78.9383C281.552 80.6776 283.121 82.5568 284.506 84.5208C284.829 84.9789 284.719 85.6152 284.266 85.9419C284.09 86.0691 283.885 86.1285 283.683 86.1285H283.687ZM251.848 82.2641C251.776 82.2641 251.709 82.2556 251.638 82.2429C250.971 82.0986 250.283 81.9926 249.591 81.9205C246.998 81.649 244.397 81.5938 241.879 81.755C241.317 81.7932 240.847 81.3648 240.809 80.8048C240.772 80.2449 241.195 79.7613 241.749 79.7231C244.376 79.5492 247.09 79.6086 249.796 79.8928C250.556 79.9734 251.315 80.0922 252.049 80.2491C252.595 80.3637 252.943 80.9066 252.825 81.4538C252.725 81.9332 252.305 82.2641 251.839 82.2641H251.848Z" fill="#27214D"/>
<defs>
<clipPath id="clip0_350_7966">
<rect width="361.337" height="55.7161" fill="white" transform="translate(460.108 71.2244)"/>
</clipPath>
</defs>
</svg>
