<svg width="229" height="107" viewBox="0 0 229 107" fill="none" xmlns="http://www.w3.org/2000/svg">
<path fill-rule="evenodd" clip-rule="evenodd" d="M177.535 44.5549L169.632 30.5024C168.839 29.1744 169.51 26.7072 171.449 26.7072L187.896 26.7018C189.155 26.7018 190.913 28.2543 189.629 30.6585L181.943 44.5905C180.941 46.4716 178.612 46.3812 177.532 44.5549M185.803 30.7926L180.156 41.0061C179.709 41.8167 179.72 41.74 179.205 40.8254L174.019 31.6524C173.239 30.2861 173.085 30.004 173.716 30.0013H185.535C186.331 29.9986 186.152 30.1601 185.805 30.7899L185.803 30.7926Z" fill="#2B2A29"/>
<path fill-rule="evenodd" clip-rule="evenodd" d="M72.955 68.9824L66.7993 58.0323C66.1818 56.9973 66.7045 55.0751 68.2157 55.0751L81.0309 55.0696C82.0112 55.0696 83.3816 56.2799 82.3822 58.1528L76.3944 69.0071C75.6145 70.472 73.8 70.4035 72.9577 68.9797M79.4032 58.2569L75.0024 66.2141C74.6531 66.8466 74.6612 66.7864 74.2631 66.0744L70.2225 58.9277C69.6158 57.8626 69.494 57.6435 69.9868 57.6435H79.1947C79.8149 57.6408 79.6741 57.7667 79.4059 58.2569H79.4032Z" fill="#2B2A29"/>
<path d="M93.2232 28.1804C92.9876 28.1804 92.7574 28.1256 92.5299 28.0134L92.6924 27.6245C92.8468 27.7039 93.0174 27.745 93.2016 27.745C93.3478 27.745 93.4724 27.6985 93.5726 27.6081C93.6728 27.5177 93.773 27.3562 93.8678 27.1262L92.3864 23.8458H92.9226L94.1061 26.5922L95.1515 23.8458H95.6687L94.3011 27.2467C94.163 27.5835 94.0086 27.8217 93.8407 27.9641C93.6728 28.1065 93.4643 28.1776 93.2178 28.1776M90.2578 26.814C90.5611 26.814 90.8157 26.7319 91.0269 26.5648C91.2354 26.3978 91.341 26.187 91.341 25.9268V25.6202C91.0215 25.5271 90.7046 25.4805 90.3905 25.4805C90.0926 25.4805 89.8597 25.5408 89.6918 25.6612C89.5239 25.7817 89.4399 25.946 89.4399 26.1541C89.4399 26.3622 89.5184 26.5128 89.6755 26.6306C89.8326 26.7483 90.0276 26.8085 90.2578 26.8085V26.814ZM90.163 27.2083C89.8299 27.2083 89.5455 27.118 89.3072 26.9345C89.0689 26.751 88.947 26.4964 88.947 26.1705C88.947 25.8255 89.0743 25.5599 89.3262 25.3737C89.578 25.1875 89.9165 25.0944 90.3417 25.0944C90.6775 25.0944 91.0107 25.141 91.3383 25.2341V25.1328C91.3383 24.8452 91.2544 24.6235 91.0865 24.4701C90.9186 24.3168 90.6802 24.2401 90.3742 24.2401C90.0682 24.2401 89.7243 24.3195 89.3857 24.4756L89.2395 24.0731C89.643 23.8869 90.0384 23.7938 90.423 23.7938C90.8861 23.7938 91.2354 23.9143 91.4765 24.158C91.7039 24.388 91.8177 24.7111 91.8177 25.1273V27.1399H91.3383V26.6497C91.0486 27.0221 90.6586 27.2111 90.1657 27.2111L90.163 27.2083ZM84.7574 27.1645L83.6173 23.8458H84.1346L84.9903 26.4882L85.8651 23.8321H86.2686L87.1515 26.4882L88.0073 23.8458H88.511L87.3654 27.1645H86.9429L86.0682 24.5659L85.1853 27.1645H84.7574ZM80.1075 27.1399V23.8458H80.5922V24.4181C80.8495 23.9882 81.2205 23.7746 81.708 23.7746C82.0953 23.7746 82.3986 23.8951 82.6207 24.1333C82.8427 24.3743 82.9538 24.6919 82.9538 25.0917V27.1371H82.469V25.2122C82.469 24.9027 82.3905 24.659 82.2334 24.4838C82.0763 24.3086 81.8543 24.2182 81.5699 24.2182C81.2855 24.2182 81.0553 24.314 80.8712 24.5057C80.687 24.6974 80.5949 24.9438 80.5949 25.2505V27.1371H80.1102L80.1075 27.1399ZM76.6681 25.2998H78.7669C78.7371 24.9822 78.6342 24.7166 78.4555 24.5057C78.2767 24.2949 78.0357 24.1908 77.727 24.1908C77.4507 24.1908 77.2124 24.2949 77.0147 24.503C76.817 24.7111 76.7006 24.9767 76.6681 25.2998ZM76.6681 25.6941C76.7006 26.0309 76.8278 26.2965 77.0418 26.4936C77.2584 26.6908 77.5157 26.7894 77.8136 26.7894C78.2036 26.7894 78.5475 26.6333 78.84 26.3239L79.1434 26.5977C78.7777 27.0084 78.3309 27.2165 77.8028 27.2165C77.3451 27.2165 76.9606 27.055 76.6464 26.7346C76.3323 26.4142 76.1779 26.0008 76.1779 25.4969C76.1779 24.9931 76.3268 24.6098 76.6247 24.2784C76.9226 23.9444 77.2937 23.7773 77.7405 23.7773C78.1874 23.7773 78.5773 23.9416 78.8482 24.273C79.1217 24.6043 79.2571 25.0205 79.2571 25.5216C79.2571 25.5846 79.2571 25.6421 79.2517 25.6941H76.6681ZM72.9389 25.2998H75.0377C75.0079 24.9822 74.905 24.7166 74.7263 24.5057C74.5475 24.2949 74.3065 24.1908 73.9978 24.1908C73.7216 24.1908 73.4832 24.2949 73.2855 24.503C73.0878 24.7111 72.9714 24.9767 72.9389 25.2998ZM72.9389 25.6941C72.9714 26.0309 73.0987 26.2965 73.3126 26.4936C73.5293 26.6908 73.7865 26.7894 74.0844 26.7894C74.4744 26.7894 74.8184 26.6333 75.1109 26.3239L75.4142 26.5977C75.0486 27.0084 74.6017 27.2165 74.0736 27.2165C73.6159 27.2165 73.2314 27.055 72.9172 26.7346C72.6031 26.4142 72.4487 26.0008 72.4487 25.4969C72.4487 24.9931 72.5977 24.6098 72.8956 24.2784C73.1935 23.9444 73.5645 23.7773 74.0113 23.7773C74.4582 23.7773 74.8482 23.9416 75.119 24.273C75.3925 24.6043 75.5279 25.0205 75.5279 25.5216C75.5279 25.5846 75.5279 25.6421 75.5225 25.6941H72.9389ZM70.2361 27.1399V23.8458H70.7209V24.7056C70.8455 24.4208 71.0242 24.1936 71.2571 24.0238C71.4873 23.854 71.7527 23.7746 72.0506 23.7883V24.3168H72.0127C71.6389 24.3168 71.3302 24.4482 71.0865 24.7111C70.8427 24.9739 70.7209 25.3463 70.7209 25.8255V27.1371H70.2361V27.1399ZM69.1962 26.5347C68.6924 26.9893 68.102 27.2165 67.425 27.2165C66.748 27.2165 66.2063 26.9975 65.7974 26.5566C65.3884 26.1185 65.1826 25.5681 65.1826 24.911C65.1826 24.2538 65.3911 23.7417 65.8055 23.2872C66.2226 22.8327 66.7507 22.6054 67.3925 22.6054C67.7446 22.6054 68.0479 22.6547 68.3025 22.7505C68.557 22.8491 68.8008 22.997 69.0364 23.1968L68.7141 23.5802C68.3268 23.2407 67.88 23.0709 67.3735 23.0709C66.8671 23.0709 66.4907 23.2516 66.1738 23.6103C65.857 23.969 65.6972 24.4044 65.6972 24.9137C65.6972 25.4531 65.857 25.8967 66.1738 26.2445C66.4907 26.5922 66.9132 26.7675 67.444 26.7675C67.9314 26.7675 68.3566 26.6196 68.7168 26.3211V25.2122H67.3763V24.7604H69.1962V26.5375V26.5347Z" fill="black"/>
<path d="M62.493 38.2186C62.493 45.275 57.6345 49.5603 51.2432 49.5603C44.0692 49.5603 38.9155 44.2181 38.9155 37.5916C38.9155 30.9651 44.1667 25.5572 50.883 25.5572C55.254 25.5572 58.9372 27.7341 60.8627 30.8337L56.4267 33.4049C55.4815 31.8879 53.426 30.7023 50.8505 30.7023C47.0022 30.7023 44.1315 33.5719 44.1315 37.6272C44.1315 41.6825 46.8722 44.4207 51.3055 44.4207C54.3387 44.4207 56.3265 43.068 57.1444 40.8583H51.0455V36.2417H62.493V38.2214V38.2186Z" fill="black"/>
<path d="M75.0481 32.285V37.8901C73.0251 37.5615 70.1571 38.3857 70.1571 41.6496V49.103H65.2661V32.6163H70.1571V35.5516C70.8098 33.3419 72.9953 32.2877 75.0481 32.2877V32.285Z" fill="black"/>
<path d="M85.1254 45.1436C86.4633 45.1436 87.6034 44.6151 88.2561 43.8895L92.1694 46.1649C90.5716 48.4075 88.1586 49.5603 85.0604 49.5603C79.4842 49.5603 76.0259 45.7679 76.0259 40.8555C76.0259 35.9432 79.5465 32.1508 84.7002 32.1508C89.4612 32.1508 92.9846 35.8775 92.9846 40.8555C92.9846 41.5483 92.9196 42.2082 92.7896 42.8353H81.2121C81.8322 44.5494 83.3326 45.1436 85.1254 45.1436ZM88.1261 39.1414C87.6034 37.2274 86.1356 36.5374 84.6677 36.5374C82.8099 36.5374 81.5695 37.4602 81.1119 39.1414H88.1234H88.1261Z" fill="black"/>
<path d="M103.877 45.1436C105.215 45.1436 106.355 44.6151 107.008 43.8895L110.921 46.1649C109.323 48.4075 106.91 49.5603 103.812 49.5603C98.2357 49.5603 94.7773 45.7679 94.7773 40.8555C94.7773 35.9432 98.3007 32.1508 103.452 32.1508C108.213 32.1508 111.736 35.8775 111.736 40.8555C111.736 41.5483 111.671 42.2082 111.541 42.8353H99.9635C100.584 44.5494 102.084 45.1436 103.877 45.1436ZM106.878 39.1414C106.355 37.2274 104.887 36.5374 103.422 36.5374C101.564 36.5374 100.324 37.4602 99.866 39.1414H106.878Z" fill="black"/>
<path d="M130.165 38.9771V49.1003H125.274V39.7028C125.274 37.6573 124.001 36.7017 122.436 36.7017C120.643 36.7017 119.403 37.7559 119.403 40.0971V49.1003H114.512V32.6135H119.403V34.1634C120.283 32.9421 121.913 32.1508 124.066 32.1508C127.359 32.1508 130.165 34.5248 130.165 38.9771Z" fill="black"/>
<path d="M110.369 66.6741C110.369 73.202 105.575 78.2156 99.2814 78.2156H90.1494V55.1326H99.2814C105.575 55.1326 110.369 60.1435 110.369 66.6741ZM105.348 66.6741C105.348 62.7174 102.87 60.2119 99.2814 60.2119H95.3681V73.139H99.2814C102.87 73.139 105.348 70.6335 105.348 66.6768V66.6741Z" fill="black"/>
<path d="M122.924 61.4003V67.0054C120.901 66.6768 118.033 67.501 118.033 70.765V78.2184H113.142V61.7316H118.033V64.667C118.686 62.4573 120.871 61.4031 122.924 61.4031V61.4003Z" fill="black"/>
<path d="M124.717 57.3094C124.717 55.6939 126.055 54.3412 127.652 54.3412C129.25 54.3412 130.588 55.6939 130.588 57.3094C130.588 58.925 129.25 60.2777 127.652 60.2777C126.055 60.2777 124.717 58.925 124.717 57.3094ZM125.207 61.7289H130.098V78.2156H125.207V61.7289Z" fill="black"/>
<path d="M149.502 61.7289L143.468 78.2156H137.924L131.891 61.7289H137.304L140.695 72.1806L144.086 61.7289H149.499H149.502Z" fill="black"/>
<path d="M158.929 74.2589C160.267 74.2589 161.407 73.7305 162.06 73.0048L165.973 75.2803C164.375 77.5229 161.962 78.6757 158.864 78.6757C153.288 78.6757 149.83 74.8832 149.83 69.9709C149.83 65.0586 153.353 61.2661 158.504 61.2661C163.265 61.2661 166.788 64.9928 166.788 69.9709C166.788 70.6637 166.723 71.3236 166.593 71.9506H155.016C155.636 73.6647 157.136 74.2589 158.929 74.2589ZM161.93 68.2568C161.407 66.3428 159.939 65.6527 158.474 65.6527C156.616 65.6527 155.376 66.5755 154.918 68.2568H161.93Z" fill="black"/>
<path d="M120.616 98.6919C120.484 98.6919 120.348 98.6919 120.216 98.6919C119.855 98.6919 119.568 98.3935 119.571 98.0293C119.571 97.6679 119.864 97.3776 120.221 97.3776H120.226C120.386 97.3776 120.543 97.3776 120.703 97.3776C122.658 97.3776 124.665 97.3064 126.675 97.1613C127.027 97.1339 127.344 97.4077 127.368 97.7692C127.392 98.1306 127.124 98.4455 126.767 98.4702C124.727 98.6153 122.688 98.6892 120.706 98.6892H120.622L120.616 98.6919ZM113.729 98.3771C113.711 98.3771 113.689 98.3771 113.67 98.3743C111.452 98.169 109.266 97.8623 107.173 97.4598C106.821 97.3913 106.588 97.049 106.656 96.6931C106.723 96.3371 107.065 96.1016 107.414 96.1701C109.467 96.5644 111.612 96.8656 113.789 97.0655C114.147 97.0983 114.409 97.4187 114.377 97.7801C114.347 98.1224 114.063 98.3771 113.729 98.3771ZM133.18 97.7774C132.86 97.7774 132.584 97.5392 132.538 97.2133C132.486 96.8546 132.736 96.5206 133.09 96.4713C135.211 96.1673 137.348 95.784 139.446 95.3322C139.796 95.2582 140.142 95.4828 140.218 95.8387C140.294 96.1947 140.069 96.5425 139.717 96.6191C137.589 97.0764 135.422 97.4652 133.272 97.7719C133.242 97.7774 133.21 97.7774 133.18 97.7774ZM100.985 95.899C100.922 95.899 100.857 95.8908 100.792 95.8689C98.6584 95.2035 96.5866 94.4121 94.6394 93.5195C94.3118 93.3689 94.1682 92.9801 94.3172 92.6487C94.4661 92.3174 94.8507 92.1723 95.1784 92.3229C97.0741 93.1936 99.0944 93.9658 101.177 94.6148C101.521 94.7216 101.713 95.0885 101.608 95.4362C101.521 95.7183 101.264 95.899 100.987 95.899H100.985ZM161.418 95.5704C159.506 95.5704 157.526 95.3979 155.528 95.0584C155.173 94.9981 154.935 94.6586 154.994 94.3026C155.054 93.9439 155.39 93.7029 155.742 93.7632C157.903 94.1301 160.045 94.2944 162.09 94.2506H162.103C162.455 94.2506 162.745 94.5354 162.753 94.8941C162.761 95.2582 162.477 95.5567 162.117 95.5649C161.884 95.5704 161.648 95.5731 161.413 95.5731L161.418 95.5704ZM145.889 95.0447C145.608 95.0447 145.348 94.8557 145.264 94.5682C145.163 94.2205 145.364 93.8563 145.711 93.755C146.493 93.5277 147.268 93.2922 148.031 93.0485C146.88 92.6323 145.716 92.1613 144.554 91.6438C144.034 91.4138 143.522 91.1646 143.032 90.91C142.713 90.7429 142.588 90.3486 142.75 90.0255C142.916 89.7024 143.306 89.5765 143.625 89.7407C144.094 89.9845 144.581 90.2199 145.077 90.439C146.574 91.1044 148.075 91.6931 149.543 92.1832C149.681 92.2298 149.794 92.3201 149.87 92.4324C150.537 92.2024 151.192 91.9642 151.836 91.7232C152.172 91.5973 152.546 91.7698 152.673 92.1093C152.798 92.4488 152.627 92.8267 152.291 92.9554C150.306 93.7029 148.213 94.3984 146.068 95.02C146.008 95.0364 145.949 95.0447 145.889 95.0447ZM168.535 94.7106C168.243 94.7106 167.98 94.5107 167.904 94.2122C167.818 93.859 168.029 93.5031 168.378 93.4154C170.45 92.8924 172.435 92.1203 174.277 91.1236C174.593 90.9538 174.986 91.0743 175.157 91.3919C175.325 91.7123 175.205 92.1093 174.891 92.2818C172.955 93.3305 170.87 94.1411 168.692 94.6887C168.641 94.7024 168.587 94.7079 168.535 94.7079V94.7106ZM89.2041 90.45C89.0849 90.45 88.9631 90.4171 88.8547 90.3459C86.9915 89.1384 85.2231 87.7857 83.5981 86.3235C83.33 86.0825 83.3057 85.6663 83.544 85.3952C83.7823 85.1241 84.1939 85.0995 84.4621 85.3405C86.0382 86.7561 87.7525 88.0677 89.5589 89.2369C89.8622 89.4341 89.9489 89.8393 89.7539 90.146C89.6293 90.3404 89.4208 90.4472 89.2068 90.4472L89.2041 90.45ZM158.046 90.4198C157.805 90.4198 157.575 90.2857 157.461 90.0529C157.304 89.7271 157.437 89.3328 157.759 89.1739C159.893 88.117 161.748 87.0245 163.281 85.9237C163.574 85.7129 163.98 85.7813 164.189 86.077C164.397 86.3728 164.329 86.7835 164.037 86.9943C162.45 88.1362 160.53 89.267 158.333 90.3541C158.241 90.4007 158.144 90.4226 158.049 90.4226L158.046 90.4198ZM179.866 88.5606C179.69 88.5606 179.517 88.4894 179.39 88.3497C179.146 88.0841 179.162 87.6679 179.428 87.4215C180.971 85.9812 182.344 84.3383 183.509 82.5393C183.706 82.2353 184.107 82.1504 184.408 82.3476C184.709 82.5475 184.792 82.9527 184.597 83.2567C183.373 85.1488 181.93 86.8739 180.31 88.3853C180.186 88.5031 180.029 88.5606 179.869 88.5606H179.866ZM138.036 87.2161C137.873 87.2161 137.711 87.1559 137.586 87.0327C135.929 85.4226 134.599 83.5825 133.637 81.5672C133.48 81.2414 133.618 80.8471 133.941 80.691C134.266 80.5322 134.653 80.6718 134.807 80.9977C135.701 82.8706 136.939 84.582 138.485 86.0853C138.745 86.3372 138.753 86.7534 138.504 87.0135C138.377 87.1477 138.206 87.2161 138.036 87.2161ZM168.465 82.7173C168.313 82.7173 168.161 82.6625 168.037 82.5557C167.766 82.3175 167.739 81.9013 167.975 81.6275C169.383 79.9955 170.566 78.2129 171.495 76.3263C171.655 76.0004 172.045 75.869 172.367 76.0306C172.69 76.1921 172.82 76.5864 172.66 76.9123C171.682 78.8975 170.436 80.7759 168.955 82.4927C168.828 82.6406 168.646 82.7173 168.465 82.7173ZM79.5359 81.7561C79.3463 81.7561 79.1594 81.674 79.0321 81.5152C77.6618 79.8175 76.3971 77.9774 75.2732 76.0442C75.0917 75.7321 75.1946 75.3296 75.5034 75.1434C75.8121 74.9572 76.2102 75.064 76.3944 75.3761C77.4858 77.2518 78.7099 79.0371 80.0396 80.6828C80.2671 80.9648 80.2264 81.3783 79.9475 81.6083C79.8256 81.7069 79.6821 81.7561 79.5359 81.7561ZM186.927 77.6817C186.853 77.6817 186.78 77.6707 186.707 77.6434C186.369 77.5201 186.193 77.145 186.312 76.8027C187.021 74.7874 187.501 72.6872 187.731 70.5624C187.769 70.2009 188.094 69.9435 188.449 69.9819C188.806 70.0202 189.063 70.346 189.023 70.7075C188.782 72.9336 188.281 75.1352 187.536 77.2463C187.441 77.5147 187.192 77.6817 186.924 77.6817H186.927ZM132.524 75.6363C132.191 75.6363 131.907 75.3789 131.877 75.0366C131.828 74.4616 131.804 73.8783 131.804 73.2978C131.804 71.6494 132.002 69.9709 132.394 68.3061C132.478 67.9528 132.828 67.7365 133.177 67.8187C133.526 67.9036 133.743 68.2568 133.659 68.61C133.291 70.1735 133.104 71.7507 133.104 73.2978C133.104 73.84 133.128 74.3876 133.172 74.9243C133.204 75.2858 132.939 75.6034 132.581 75.6363C132.562 75.6363 132.543 75.6363 132.524 75.6363ZM174.152 71.0717C174.111 71.0717 174.071 71.0689 174.03 71.0607C173.678 70.9922 173.445 70.65 173.513 70.2913C173.773 68.9167 173.903 67.5202 173.903 66.1456C173.903 65.4063 173.865 64.6643 173.789 63.9414C173.751 63.5799 174.011 63.2568 174.369 63.2185C174.721 63.1801 175.046 63.443 175.084 63.8045C175.162 64.5739 175.205 65.3625 175.205 66.1456C175.205 67.6024 175.067 69.081 174.794 70.5377C174.734 70.8526 174.461 71.0717 174.157 71.0717H174.152ZM188.327 64.7382C188.004 64.7382 187.725 64.4972 187.682 64.1632C187.411 62.0328 186.889 59.9491 186.125 57.9666C185.995 57.6298 186.16 57.2465 186.496 57.115C186.832 56.9836 187.208 57.1506 187.338 57.4902C188.14 59.5712 188.692 61.7618 188.974 63.9989C189.02 64.3576 188.768 64.6889 188.411 64.7355C188.384 64.7382 188.354 64.7409 188.327 64.7409V64.7382ZM135.403 63.0186C135.295 63.0186 135.186 62.9912 135.086 62.9337C134.772 62.7557 134.664 62.3559 134.837 62.0383C135.92 60.0942 137.258 58.2815 138.818 56.655C139.067 56.3949 139.479 56.3894 139.736 56.6413C139.994 56.8932 139.999 57.3094 139.75 57.5696C138.268 59.1139 136.996 60.8362 135.966 62.6818C135.847 62.8954 135.628 63.0159 135.4 63.0159L135.403 63.0186ZM172.73 58.2185C172.486 58.2185 172.254 58.0789 172.142 57.8406C171.211 55.8418 169.965 54.1578 168.44 52.8407C168.167 52.6052 168.134 52.189 168.367 51.9152C168.6 51.6413 169.012 51.6058 169.283 51.8412C170.948 53.2788 172.305 55.1107 173.318 57.2793C173.472 57.6079 173.331 57.9995 173.006 58.1528C172.917 58.1966 172.822 58.2158 172.73 58.2158V58.2185ZM144.346 53.6758C144.126 53.6758 143.912 53.5636 143.79 53.3609C143.604 53.0515 143.698 52.6463 144.004 52.4573C145.892 51.2909 147.926 50.3571 150.057 49.689C150.401 49.5822 150.764 49.7739 150.87 50.1216C150.975 50.4694 150.786 50.8363 150.442 50.9431C148.416 51.5784 146.477 52.4655 144.684 53.5773C144.579 53.643 144.462 53.6731 144.346 53.6731V53.6758ZM183.652 52.6161C183.449 52.6161 183.249 52.5203 183.122 52.3396C182.271 51.1293 181.304 49.9738 180.251 48.9031C179.996 48.6457 179.999 48.2295 180.251 47.9749C180.505 47.7175 180.917 47.7202 181.169 47.9749C182.274 49.0976 183.287 50.3106 184.18 51.5784C184.389 51.8741 184.319 52.2848 184.026 52.4957C183.912 52.5778 183.78 52.6161 183.65 52.6161H183.652ZM163.1 50.1216C163.054 50.1216 163.01 50.1162 162.964 50.1079C162.534 50.0148 162.09 49.9464 161.643 49.8998C159.969 49.7246 158.29 49.689 156.665 49.7931C156.302 49.8177 155.999 49.5411 155.975 49.1797C155.95 48.8183 156.224 48.5061 156.581 48.4815C158.277 48.3692 160.029 48.4075 161.776 48.591C162.266 48.643 162.756 48.7197 163.23 48.821C163.582 48.8949 163.807 49.2454 163.731 49.5986C163.666 49.9081 163.395 50.1216 163.094 50.1216H163.1Z" fill="#2B2A29"/>
</svg>
