<svg width="186" height="203" viewBox="0 0 186 203" fill="none" xmlns="http://www.w3.org/2000/svg">
<path d="M77.8846 45.4859C84.8107 40.4539 94.1893 40.4538 101.115 45.4859L135.899 70.7578C142.825 75.7899 145.723 84.7094 143.078 92.8515L129.792 133.742C127.146 141.884 119.559 147.397 110.998 147.397H68.0025C59.4414 147.397 51.854 141.884 49.2084 133.742L35.9222 92.8515C33.2767 84.7094 36.1748 75.7899 43.1009 70.7578L77.8846 45.4859Z" fill="#BCCF00"/>
<path d="M75.9007 113.206C82.1844 116.749 93.1568 121.443 101.899 111.497" stroke="#595959" stroke-width="2.19569" stroke-linecap="round"/>
<path d="M91.5 104.047C91.5175 105.754 91.4889 107.151 91.4893 108.17" stroke="#595959" stroke-width="2.19569" stroke-linecap="round"/>
<path d="M87.5 104.047C87.5175 105.754 87.4889 107.151 87.4893 108.17" stroke="#595959" stroke-width="2.19569" stroke-linecap="round"/>
<path d="M52.2353 125.047C42.3698 127.243 19.3529 137.844 30.4607 153.95C41.5686 170.056 78.4485 171.887 95.5 170.788" stroke="#595959" stroke-width="2.19569" stroke-linejoin="round"/>
<path d="M131.854 125.047C141.186 126.619 158.323 135.134 152.214 156.614C146.106 178.094 101.193 182.496 79.5 182.012" stroke="#595959" stroke-width="2.19569" stroke-linejoin="round"/>
<path d="M103.738 38.1588C102.892 26.9801 103.245 6.06803 111.419 11.8497C119.593 17.6313 112.228 32.535 107.524 39.2642C111.837 33.4496 121.335 22.9241 124.827 27.339C129.193 32.8577 114.851 41.0366 108.273 41.8169" stroke="#595959" stroke-width="2.19569" stroke-linejoin="round"/>
<circle cx="100.539" cy="38.7674" r="1.90216" transform="rotate(16.2751 100.539 38.7674)" stroke="#595959" stroke-width="2.19569"/>
<path d="M108.031 40.6987C105.836 37.0948 103.528 37.1617 102.449 38.3285C101.57 39.2801 101.524 40.2345 102.432 40.9163C104.369 42.3708 109.276 46.1244 111.777 48.0893C111.443 47.1274 110.226 44.3027 108.031 40.6987Z" stroke="#595959" stroke-width="2.19569" stroke-linejoin="round"/>
<path d="M98.5 30.0469C97.7454 31.7969 96.6889 35.6469 98.5 37.0469" stroke="#595959" stroke-width="2.19569" stroke-linejoin="round"/>
<path d="M94.2758 31.4159C94.7946 33.2497 96.4043 36.9031 98.6927 36.8465" stroke="#595959" stroke-width="2.19569" stroke-linejoin="round"/>
<path d="M65.5 147.047C70.9706 149.875 92.4153 151.501 96.5 150.935" stroke="#595959" stroke-width="2.19569" stroke-linejoin="round"/>
<path d="M96.2242 150.047C98.707 152.705 105.311 157.369 104.417 166.359C103.697 173.609 101.811 176.872 98.8311 179.047C95.4794 179.047 93.2448 174.697 92.5 170.347" stroke="#595959" stroke-width="2.19569" stroke-linejoin="round"/>
<path d="M73.6073 171.047C72.7717 172.986 71.6018 178.538 73.6073 185.229C75.6129 191.92 79.4568 194.562 81.1281 195.047C82.9187 194.077 86.5 190.247 86.5 182.683" stroke="#595959" stroke-width="2.19569" stroke-linejoin="round"/>
<path d="M102.5 159.047C107.596 156.867 117.931 151.816 118.5 149.047" stroke="#595959" stroke-width="2.19569" stroke-linejoin="round"/>
<path d="M39.5 103.047C30.5351 106.319 10.9842 112.443 4.5 110.76" stroke="#595959" stroke-width="2.19569" stroke-linejoin="round"/>
<path d="M137.5 106.047C148.678 109.333 172.126 115.174 176.5 112.253" stroke="#595959" stroke-width="2.19569" stroke-linejoin="round"/>
<path d="M176.5 118.047L175.575 113.133" stroke="#595959" stroke-width="2.19569" stroke-linejoin="round"/>
<path d="M180.5 114.047L174.854 113.703" stroke="#595959" stroke-width="2.19569" stroke-linejoin="round"/>
<path d="M178.5 109.047L174.476 113.608" stroke="#595959" stroke-width="2.19569" stroke-linejoin="round"/>
<path d="M103.46 42.3271L101.379 45.8866" stroke="#595959" stroke-width="2.19569" stroke-linejoin="round"/>
<path d="M107.46 44.3271L105.379 47.8866" stroke="#595959" stroke-width="2.19569" stroke-linejoin="round"/>
<path d="M110.46 47.3271L108.379 50.8866" stroke="#595959" stroke-width="2.19569" stroke-linejoin="round"/>
<path d="M2.5 108.047L5.47533 112.065" stroke="#595959" stroke-width="2.19569" stroke-linejoin="round"/>
<path d="M0.5 114.047L5.73128 111.894" stroke="#595959" stroke-width="2.19569" stroke-linejoin="round"/>
<path d="M4.5 117.047L6.13227 111.187" stroke="#595959" stroke-width="2.19569" stroke-linejoin="round"/>
</svg>
